<mxfile host="65bd71144e">
    <diagram name="Proxmox Virtual Environment Diagram" id="0">
        <mxGraphModel dx="2923" dy="2170" grid="1" gridSize="10" guides="1" tooltips="1" connect="1" arrows="1" fold="1" page="1" pageScale="1" pageWidth="827" pageHeight="1169" math="0" shadow="0">
            <root>
                <mxCell id="0"/>
                <mxCell id="1" parent="0"/>
                <mxCell id="16" value="" style="shape=mxgraph.mockups.misc.screenshot;fillColor=#FFFFFF;strokeColor=#d50c2d;fontColor=#000000;fontSize=18;align=left;verticalAlign=top;fontStyle=1;strokeWidth=4;" parent="1" vertex="1">
                    <mxGeometry x="-180" y="-70" width="1030" height="940" as="geometry"/>
                </mxCell>
                <mxCell id="17" value="" style="edgeStyle=none;html=1;fontSize=16;" parent="1" source="proxmoxLogo" target="2" edge="1">
                    <mxGeometry relative="1" as="geometry"/>
                </mxCell>
                <mxCell id="proxmoxLogo" value="                           Hypervisor - Virtualization Environment" style="shape=mxgraph.mockups.misc.screenshot;fillColor=#FFFFFF;strokeColor=#FF6600;fontColor=#000000;fontSize=20;align=left;verticalAlign=top;fontStyle=1;strokeWidth=3;" parent="1" vertex="1">
                    <mxGeometry x="-155" y="-10" width="950" height="720" as="geometry"/>
                </mxCell>
                <mxCell id="userTools" value="&lt;font style=&quot;font-size: 16px;&quot;&gt;&lt;br&gt;&lt;/font&gt;" style="rounded=1;whiteSpace=wrap;html=1;fillColor=#00617e;" parent="1" vertex="1">
                    <mxGeometry x="-130" y="40" width="600" height="120" as="geometry"/>
                </mxCell>
                <mxCell id="services" value="" style="rounded=1;whiteSpace=wrap;html=1;fillColor=#00617d;" parent="1" vertex="1">
                    <mxGeometry x="-120" y="170" width="880" height="70" as="geometry"/>
                </mxCell>
                <mxCell id="vmLayer" value="" style="rounded=1;whiteSpace=wrap;html=1;fillColor=#b5c3c3;" parent="1" vertex="1">
                    <mxGeometry x="-135" y="257" width="215" height="283" as="geometry"/>
                </mxCell>
                <mxCell id="qemuLayer" value="&lt;font style=&quot;font-size: 18px;&quot;&gt;QEMU&lt;/font&gt;" style="rounded=1;whiteSpace=wrap;html=1;fillColor=#FF9900;" parent="1" vertex="1">
                    <mxGeometry x="-122" y="571" width="415" height="40" as="geometry"/>
                </mxCell>
                <mxCell id="kernelLayer" value="&lt;b&gt;&lt;font style=&quot;font-size: 22px;&quot;&gt;Linux Kernel&lt;/font&gt;&lt;/b&gt;" style="rounded=1;whiteSpace=wrap;html=1;fillColor=#00617e;" parent="1" vertex="1">
                    <mxGeometry x="-125" y="633" width="840" height="60" as="geometry"/>
                </mxCell>
                <mxCell id="2" value="" style="shape=image;imageAspect=0;aspect=fixed;verticalLabelPosition=bottom;verticalAlign=top;image=data:image/svg+xml,PHN2ZyB4bWxucz0iaHR0cDovL3d3dy53My5vcmcvMjAwMC9zdmciIHZpZXdCb3g9IjAgMCAxODEuNDIgMjIuMjQiPjxkZWZzPjxzdHlsZT4uY2xzLTF7ZmlsbDojZDUwYzJkO308L3N0eWxlPjwvZGVmcz48dGl0bGU+RWxlbWVudCAxPC90aXRsZT48ZyBkYXRhLW5hbWU9IkViZW5lIDIiIGlkPSJFYmVuZV8yIj48ZyBkYXRhLW5hbWU9IkxvZ28gUHVyIiBpZD0iTG9nb19QdXIiPjxnIGlkPSJMb2dvIj48ZyBpZD0iSEVUWk5FUiI+PHBhdGggZD0iTTE3NC4wNSwxNC4xMmExMC4yMiwxMC4yMiwwLDAsMCw0LjUzLTJsMCwwYTYuMTUsNi4xNSwwLDAsMCwxLjY4LTQuNzgsNy43MSw3LjcxLDAsMCwwLTEuMTQtNC4wNkE2LjQ3LDYuNDcsMCwwLDAsMTczLjg0LjA5bC0xLjA5LDBMMTcwLjIsMCwxNTguNjYsMGMtLjcsMC0xLC4yOS0xLDFWMjEuMjJjMCwuNy4yOSwxLDEsMWgzYy43LDAsMS0uMjksMS0xdi02LjdoMy42N2EzLjQ4LDMuNDgsMCwwLDEsMi4xNy45MWw1LjgyLDUuODVhMy4wOCwzLjA4LDAsMCwwLDIsLjkyaDQuNDdjLjcsMCwuODctLjQxLjM4LS45MVptLS43Ni00LjNIMTYyLjY0VjQuNzJoMTAuNjVhMi4xMywyLjEzLDAsMCwxLDEuODcsMi4xNXYuNzlBMi4xNCwyLjE0LDAsMCwxLDE3My4yOSw5LjgyWiIgY2xhc3M9ImNscy0xIi8+PHBhdGggZD0iTTE1MywxNy41MkgxMzYuNDdWMTMuMzVoMTMuMTljLjcsMCwxLS4yOSwxLTFWOS45MmMwLS43LS4yOS0xLTEtMWgtMTMuMlY0Ljc2SDE1M2MuNywwLDEtLjI5LDEtMVYxYzAtLjctLjI5LTEtMS0xSDEzMi4zOGMtLjcsMC0xLC4yOS0xLDFWMjEuMjRjMCwuNy4yOSwxLDEsMUgxNTNjLjcsMCwxLS4yOSwxLTFWMTguNTFDMTU0LDE3LjgxLDE1My42NywxNy41MiwxNTMsMTcuNTJaIiBjbGFzcz0iY2xzLTEiLz48cGF0aCBkPSJNMTI3LjczLDcuM2E3LjI1LDcuMjUsMCwwLDAtMS4xMy00QTYuNjEsNi42MSwwLDAsMCwxMjEuMjQsMEwxMDYuMDgsMGMtLjcxLDAtMSwuMjktMSwxVjIxLjIyYzAsLjcuMjksMSwxLDFoMy4yNmMuNywwLDEtLjI4LDEtMVY0LjczbDguNzgsMGMxLjg3LDAsMy42OSwxLjI0LDMuNjksMy4xMVYyMS4yNGMwLC43LjI5LDEsMSwxaDIuOTVjLjcxLDAsMS0uMjksMS0xWiIgY2xhc3M9ImNscy0xIi8+PHBhdGggZD0iTTEwMC40NywxNy4zOWwtMTQuMjUsMEwxMDAuNSw0Ljg0YTIuNTcsMi41NywwLDAsMCwxLTEuODRWMWMwLS43LS4zLTEtMS0xSDc5LjgzYy0uNywwLTEsLjI5LTEsMVYzLjc3YzAsLjcuMjksMSwxLDFIOTMuMDhMNzkuNzksMTcuMjRhMi42MiwyLjYyLDAsMCwwLTEsMS44NHYyLjE3YzAsLjcuMjksMSwxLDFsMjAuNjUsMGMuNywwLDEtLjI5LDEtMVYxOC4zOEMxMDEuNDYsMTcuNjgsMTAxLjE3LDE3LjM5LDEwMC40NywxNy4zOVoiIGNsYXNzPSJjbHMtMSIvPjxwYXRoIGQ9Ik03NC4xOSwwSDUzLjU1Yy0uNzEsMC0xLC4yOC0xLDFWMy43NmMwLC43LjI4LDEsMSwxaDcuNzhWMjEuMjRjMCwuNy4yOSwxLDEsMWgzLjNjLjcsMCwxLS4yOSwxLTFWNC43NWg3LjU3Yy43LDAsMS0uMjksMS0xVjFDNzUuMTguMzIsNzQuODksMCw3NC4xOSwwWiIgY2xhc3M9ImNscy0xIi8+PHBhdGggZD0iTTQ3LjkxLDE3LjUySDMxLjQxVjEzLjM1SDQ0LjZjLjcsMCwxLS4yOSwxLTFWOS45MmMwLS43LS4yOC0xLTEtMUgzMS40MVY0Ljc2aDE2LjVjLjcsMCwxLS4yOSwxLTFWMWMwLS43LS4yOS0xLTEtMUgyNy4zM2MtLjcsMC0xLC4yOS0xLDFWMjEuMjRjMCwuNy4yOSwxLDEsMUg0Ny45MWMuNywwLDEtLjI5LDEtMVYxOC41MUM0OC45LDE3LjgxLDQ4LjYxLDE3LjUyLDQ3LjkxLDE3LjUyWiIgY2xhc3M9ImNscy0xIi8+PHBhdGggZD0iTTIxLjYzLDBIMTguNTJjLS43LDAtMSwuMjktMSwxVjguODdINS4xM1YxYzAtLjctLjI5LTEtMS0xSDFDLjI5LDAsMCwuMjksMCwxVjIxLjI1YzAsLjcxLjI5LDEsMSwxSDQuMTNjLjcsMCwxLS4yOCwxLTF2LThoMTIuNHY4YzAsLjcuMjksMSwxLDFoMy4xMWMuNywwLDEtLjI5LDEtMVYxQzIyLjYyLjMyLDIyLjMzLDAsMjEuNjMsMFoiIGNsYXNzPSJjbHMtMSIvPjwvZz48L2c+PC9nPjwvZz48L3N2Zz4=;" parent="1" vertex="1">
                    <mxGeometry x="-160" y="-50" width="243.24" height="30" as="geometry"/>
                </mxCell>
                <mxCell id="3" value="" style="shape=image;imageAspect=0;aspect=fixed;verticalLabelPosition=bottom;verticalAlign=top;image=data:image/png,iVBORw0KGgoAAAANSUhEUgAABLAAAAC+CAYAAAAlZPasAAAABGdBTUEAALGPC/xhBQAAACBjSFJNAAB6JgAAgIQAAPoAAACA6AAAdTAAAOpgAAA6mAAAF3CculE8AAAABmJLR0QA/wD/AP+gvaeTAAAAB3RJTUUH6AYYDgAoEwU8bwAAXppJREFUeNrt3Xd8HMX9//HXnCy5AEYGbKyTTI0JhJKQQCCB0A3YdDChEwjBVFt3NiUkEEQLgdjWyaYEU0MLxPRiiimh5UsCKfSEEgPSnYwpLmBjS7qb3x9z5AfEtlbS3d7s3fv5eOjxCPFKOzs7uzs7O/P5gIiIiIiIiIiIiIiIiIiIiIiIiIiIiIiIiIiIiIiIiIiIiIiIiIiIiIiIiIiIiIj8l6mAY1wdGAnU5n8GAR3AYuAzoBWYA2TVHAquH7A+MAJYJf9TDSwBFgIfAm/l/1tEREREREREZLnKbQArBmwN7AzsBGwJDAvwe8uAN4HngUeBx4H5ah49tjawKzAK+D7wDaAmwO+1An8Hnsj/vKqqFBEREREREZFyszHwa+B9wBbgpwu4G9gDNygmKzYAOAJ4EsgVqP5fBSYSbPBRRERERERERMRr3wPuoXADJ8v7+TdwFFCl6v6KVYFfAB8Vse4/B64ENlR1i4iIiIiIiEjU1AN/pHgDJysayNpPVU8MGI+LXxVW3XcBvwPWUPWLiIiIiIiIiO8McCqwiHAHr778cxuVu7RtI+DZEtb9R8AxugxERERERERExFe1uLhU1oOfucD2FVb/R+AyN/pQ/7cCq+mSEBERERERERGfbAS8gx+DJ1/8LANOqIC6rwKmeFb3FvgXsL4uDRERERERERHxwXeBD/BvAOWLn9+Ucd3XADM9rvt24Du6RERERERERESk1C7C3wGUch7EGgQ8EoG6/5UuEREREREREREpNQNch/8DKU1lVOfVwKwI1PmN+fYhIiIiIiIiIlJyVfgTwH1lP4kyqGsDXB+Bur4P6KdLQ0RERERERER8MhB4Br8HVbLAIRGv58n4P3j1f7gljiIiIiIiIiIi3lkd+Cd+D650AHtGtH5Pwf/Bq1eAIboURERERERERMRn9cAc/B5kWQz8MGL1ehhuBpnP9fo+MEKXgIiIiIiIiIhEwTeAD/B7sOVDYJOI1OcuwNII1Oc31fRFREREREREJEq2Bj7F70GXVmAdz+txqwjU4yLge2ryIiIiIiIiIhJFu+L/zKHXgDU8rb8Ngbme198yYA81dRERERERERGJskPxP3bTX4BVPau3ocCb+J/V8cdq4iIiIiIiIiJSDk7G/+x5s4EaT+prMPD3CNRZo5q2iIiIiIiIiJSTi/B/QOYWIFbieqoBHo1AXZ2nJi0iIiIiIiIi5cYAM/B/YOayEtZRDLg9AnV0lZqziIiIiIiIiJSrKmAm/g/QnFWi+mmOQN3cC/RTUxYRERERERGRL5hi/NF3E9RVWzbDsDGWjW2MtWM51rCGIRiyWOYbw3wLH2D5l4U3qi2vrd3CBwXYfQ3wADDK43q3wDjgmhD3+QvcMkuf/QkYjcss2ZfKNW0T+EZVjE2BTaxlJIY1gCHAYAudBuYD8w2kMfybHP9aZnh5/RQLdFsQERERERER8UtBBrDmNDGg/0JGYxllYRfgm70szevAY7ksj3ywlNlbzaCzl0UajBsM2dLjus/iMijeEcK+jgRupEgDlgXyCrAD9G4AqTXJGgb2MZZRuMHLYb34Mzng7xgeNzlm1bXwjHGDjSIiIiIiIiJSQn0a0GhN8n1j+akx/BjLkAKX7QPg97kc14yYxlu9+P2hwLPARh7XfwewNy5DYbHsBdyD38vy/gNsB8zt6S9mkvwoB+NMjrEYBhT46pgD3GRiXBefwnu6XYiIiIiIiIiURq8GsDKNbG9jnIll7xDKaI3hjq4uzlpnOu/08Hc3xA1iDff4HCwCdgb+XoS//X3gCWAVj4//Q2B74M2e/FJbgh8Y+A1u1lax5TDMyuW4cEQLf9FtQ0RERERERCRcPRrASk9kSyyXYflhCcraYSyXV/fn3KGX8mkPfm9z4Gmg1uPz0KtBnG6MBJ7DzUTzVY8H71onMLIqRrN1M8tCZ+GumCUZb+F93T5EREREREREwhFoAOvDM1ito4OLgRNxmf5K6T1jGBdv5tEe/M5OwENQ4CVmhfUf3CBWewH+Vhz4M7Cux8fbo+WT9mCqMnEmYjgPGFjisi8xcGFdmkvNTLK6jYiIiIiIiIgUV7cDWJkE37VwG25Gjy+ssVy1OEdi5HSWBfydfYE78TsW1CvAjrgMeb21OvAU8G2PjzOHC2A/M8jG7QnWs3C7dUsi/WmE8FSui8PXuYyMbiUiIiIiIiIixRNb2T+2JTnRupk8Iz0rt7GGEwdW8UymkXUC/s59wCmen4/NgQeBQb38/YHA/fg9eAWQJODgVSbJnjl40bfBKwADO1b14x+ZxlDicImIiIiIiIhUrOUOYFkw6UYuNpYrgf6+Ft7A1tbwt/SEwDG5ZgC/8vyc/AA3462nM8WqgJuAH3l+fOcC04Js2JZgorU8CKzp8fEMs4ZH2xKM1e1EREREREREpDiWu4Qw3chxGK6J0HEssZZDGlp4IOD2zUDC82O6CfgJYANuPx041fNj+h1wUncbWTDpBBcZOCtCbTBrqtgsPoV/eVauocAIXFy0gUgQXcCnwEJgMTAH+LwM7vXrAPXA2vi9lNonn+fbwCLgE+B9UNw7YK18W1ol/1NbAcf8Wb4tLMbFqqyYpeMfj2fwZ11U5dbm8/WbWKrmX3j2YKreX4vBAOuszULTRC5Cz5U4MAyoKcDfXIgLM/Fh/jqbp9bRK0Py9+ihuA/ctfQy8/xXu+d8AMzN94u6Il5H/fLtdwgwOP8sK/d+8rL8M2xBvl/zLtBZEffYJvq9/wGrAaxzJQtM8Pdr6YE5CWpjyzAfZvlsqxnFa1tmRSc5s4C7gH2i9NJpDD+JN3NrwOO+ATja82O6GPhFgO3OB87x/FjuAcYGeflLJ7gM/5d7frVBGc6KN/MbT4ozOF9/Y4Hv6nbaZ7n8wMUbuIymTwJ/i0jnbQPcYP3+uIFM6ZsO4B3gJVyswSeBf5f5MQ8GdsBljN0W2BhYQ02Bz3CZg/+WbwdP5l/sotq5j6UXsEUMdsq558bGBjZczrnuMm5w4d85+HfM8rdYlseGX8YcNYnuvXMmqw9cxs7W8ENgE2PZxC7/A9PnGOaQ498mxmsWnsrBcyOavfiY8j3cx8i9gOEhXGcv56+zJ/LX2UK1pK8YiFt9sSuwNfAd3KBMMX0MPABcBrwYkXraBJfUa0dcqJUNKMyga5R14QYjX/lSn+ZVIjy40z6eodkqdgS2M5aNrWEjAw3LOdeLsbQCb1h4IwZP8znPxGewRLeUlZvTxIDqT9guFmNHYBPrrq11gVW/3mc20JqDN2PuHeq5XCdPNVzOx31+717RP7QmGRizzAa2i8wgAnQa2K8uxUMBNq/GxYvaw/PDOg2YspJ/PwE3s8lnTwKjofuA+5kE51v/B+O+2vGHVEOKpCfFOQ74DW6GhBTPPOAPwI3A3z0sXzVwIW7wqkanq6j+BdyMmzX7fpkcUzUwBjcLeC+1oaCPAp7J3xPuiMpLdttEtjVZjsLw4z4+N97GcGvMcn1dinfVHL70pj+ewcv6cai1HIUbBO7tDNhlwKPWclPnEO4vwWy4ocDluI9jpkTV2QE8AtwC3EWFzB5Zwfvb7sBRwH7LeXEM8753K+6jqY/3vPWAI/P1tJHuRoG896U+TSQ+0M09jWG5LIdZy5G4Afbe3p+WYXnSGq5dWMt9mzbRoebgvDiO6vgg9rGGY7HsSu9nK+YMvIjlllg1tw2f3LtZtis9we+dxJCq/jxtYLMI1fFiG2O3hqk8H2DbQcBjuLhTPneKjwOuX86/7Zt/gFd5XP6XcV87FnS3YTrJyVguj9gry63xIRzlwXT/KtyXsBN1mw3dM8CvgYc9Kc/quIyru+rUhCoL/BE3gPxyRI9hIPAz4HQ0Y68vPgWuwIUr+MC7x9bBVGUaOBjLzyl80pcchlkmS1N8Gn+r5EbQmqQ+luMXGH6CW55USB9ZS0un4bL1U933rwpgc1wypPU8quJM/hqbDoEzkkedwQ3I/AI3G9YXrwN7gzczMb+DC0Mylm4SlslK3z8fxK0G+rOPBWybyEYmx1kGjrDuw1shzTOGZhYzrZJnZc07mVU7amg0MB4XgqSQN7NO4A8myyV103m9pzfC7h/AludwU8Oi4uNYlh0CVsZa+RfQjT0+nk7ggPyN5As74L5CDfC43O8A2xNgWUVbIwcbw20Re9A8uqCWfTwZoZ+Gu7lI6fwf7ivkP0pYhn7ALGCUTkdJO3234WbPRilO0uHAZKBOp7BgPscNaF4KfsSOyiTZ3VqmAd8s9nVg4e6YJRlvKZuZicE6oOMZvCxGk4WTMMXtoxlYmDNcUL86LaapaMva1wH+QvGXC/bWHOBMAma3jrAf4gbsvu9p+f6Fm2FYyplYDcBUSjtLsBw9BEwA3vahMG2nsKap4RIsxxb9vdEyFzg73sJ1lRQ3yzYRyyzgFNyqqKFF3l0Oy23ZLKevc1mwfnOgizvdyDcxPEu0liW1EmO7+qm0BrzhPZd/SPvcEd4deBY3I+5pir/GvS/m4Qav3ur2RpRgF+NeuvtH5sKGF2o62GXYFXzmQXGOwi1bkdLL4mbCnUVpAr9HIR5epVgEnJ1vDz53etYDrkEz9orpbeB44E+lKkD7eIbaflxuLQeHfR1Yyxn1LcyohM5/6wTGxGL8jpBnMBp4xViOq2vhhQL/6Rhu8GqrCFT/s8BPg/Q7I6Y2/xw5HP8HZWYCPy7Bfg3QCFxA6ZZTlruluA8yF1HCGLCZJIdbS0sJxiQesVl+1jCdtnI/0flxn2sJP4zUpwZ+VZeipbv+QuAbYXsjW+cMT0TsxvBWVT+2D7i+MgqDQp/gAs/PwAX99NVC3LLBl7rt7DWyRczwFNHKYvV2P8v2a7d4sTRkIC6QcIOerV55AzgYeC3EfcbzHfdBqn6v3A8cC30PWlkE++ASmigoe/FZ3EysXxJyJsv2JDvmLLfgspKVhuGBpTUcueEl5RmAO78s8yIsZ5awGF1Yzo63cGkBBwuPYfkhLHz1KS7sRrnMxvo2LqbeNyJU5u1xkwLCslb+ObaXHjOh+CtwCIQb6/Ct8fQf1I9LsUwo5Xu4jTG2YSpPluvJbUsw1rjraZWSFcLweHU/jhz22xWv4OrRSH6mkT0w3F+EdabF7DI+X1XNbsMnszjA1tsAj5f0pEXfUlxg/Ke72/D98WxYVcVzFHhNbZFlYrCdR0FqT8XFfxD/fIYbxAorNtbFwM9V7V56D5fI4g2PyvQroAktswjbw/n7Qiizd/OxJafhQaxMC6/262LfcstY2JpkjZhlJrCLJ/3eWxcM4dgChTd4A79DbKygqTEZFyeqK8JN62jgSqL3Ueo+XGD5MGyKW96mmI3h+gj3Aez5MHb23kkM6VfDLAzbenDsHRZOaEhxQ7md1HSCpnzf0Id+YVtVjtHDp/Hq8v6xR+tG4y08guEYKHnA6uAM22Y7uePFcYEG3f6CG1XuQnojiwsu2e3g1bzTGd6vikeI1uDVgpxltGcZlsaq2XlrVdzsm5+GtL8DVOXeWhf3RfqHXjwV3cvdeWjwqhT2xGXmLXZMCdIJzs0nRvEi0YuBzbL9eLptYvlkA8tMYq2Y5XF8GbxyFX147QLuz4zr88DHt4je4NUX97jTgdvpfcbHUksAvyeaM6pHEc5EgO/jlmVr8Cp8a+EmfIwp9o7axzO0X3+e9GTwCqDGwHWZBD8rpxOaTnIpcK5H/cKGbBVPpycsv9/c48Bn8WZuNTApYo+yPesGcb1tCnS8D+KWe1RMoLYCsbgMeHd2t+HH4xnc2cEsCxtG6OiWGst+I1q8yi5WjZuqLf7qh4svdGSR97M2xQ/KLH0zBJd4Y+sSl2M6UXuGl5+tcBmQa4v62DJexGj8n05pLMefMpMiOTDyFZlJrGWzPI7LeOZbv7ejLt7nGVg7RPwUHYhbChO1LHSn4AKRR9VAih9oflvgCaIVm7ncDALuwc0uL5qqLJ9bvEiW9ZU7rIWr2ho5uhxOZCbJBVhO9/Dd2+RW0I/p1U09niKF5TcROz9HZOYHXmp1M1qK01Nn51/UV+q1JmqWVnEHhi0jdGxZA0fGW7qfWRay4XjyZV26eZWA63BLa4slrmqOhFVxH0lKNQPlF/mXIym9LYB7KWIm4YZmpmC4xL8+KXU2y2PtCdaLbId/HINsjnvz59G3Cn6+qopDC5CVsL4MrrMjgKuJzmzTn+I+MkR9dmwx47J+C3gAhXvxQTUu3tw2xdrBsCv4LFbFGCz/8uzYY8ZwXaaRg6J8AtONnGotZ3tYtM+NYd8VTRzp9VeJeAu/yEeoj9Jr5MmZBGcF3PpS3DIL6d4VwK+77VM1ERuykJtx04ujwho4Md7S/cyyEhiqphe5h/xGagsVbyhuEGtwyPs9ALhQ1e+VHYCrirmDeDNnEeDjUgnU52D2B42RCiMAwIvjqLYDuRPrxZLgr3ZY4NVcjL0Cxn2tlOfKT3GD9777Yf5+UA5Lu4vVdmpxg1dr6vHhjVVwcc+K9iE1PoWPbI5RwPueHXuVNdyabozUe+1/ZRIcgaHFw6K5iSPNPLOiDXo9gGXAxts4wcJdUTpZFi7qwbrVM3AzJ2TFbgPGB7pQFtJcghTefW0v58RTXnb+QbOvomY14I8UZ8aF2kK0fAOXTTYs6wDXophXPjoaF7agKAzYeJoTrfHyI8w3ugyPzElEJwuxBRMfxDUY9vSweK0mxpgRzXxSoL8XK6Pr7Dx8ilP2v2qBW4luzK4w+iRfzGZfX48N7wzLt9+i9UUbptMWM4yBgt3fCqUGwx2ZBN+N0glrS7AXLsOsb/d5C4yLp1Y+vtSnQpuZZK3hSFjxCJmHjIXfBZzyZ4FxwN26Ny3XExAsqH86QVOJU5/25kl5ZUOKi3SapYC+jcsWKHII8JNwbmXciIvBJX6aDmxQtAYwk+zC1TkcF3fLu3tif8tdc5qKt5SykNIJplq8jHvyIZZR9VNp1eW0XFX5l7XBnpZvBi7Zh6zYz1CyGp/tCJxZzB3UNfNazjIGCjLDtJAGW3g43RiNWLStjWxj4HZLoAR3obKG0+tT3U8e6vOo24hmPl/an32Af0bpQWbh5kxjoACVWdwa+md1b/qKF3Fpcpd1t2EmyThcZoMouacuHWxmmUgPjcfHoL9SCr8F1ijyPo7IdyzFX6sA04q5g02b6BiQ5SDg7x52WHeuWcBttsnv2SdtjZxtXHY43ywyOUbXt/BvXUortQ54+VHyEIjW6oQSGAqRi71cic6myDPkRrTwF+uumS7v2qhhdnqi31kx505gs5hhFh7GkLNwcUMzU4JsW5BpYxtewsJsF3sB70bmEjMMsIb70xMDBRP/HNgbeEn3JgDeztdHtxmO0o3sa10a7+g0DcuTS7IcamaS1amWIqiCaF0TUtRO+QVF/Pur4eI5iv/2AvYp5g7WnM6iWJY9gTc9PP792hdwjfV0mWsmyThjinqt9lYHlrHxafxNl1AgJwKbeFSeahSbMIjfUPyPPdJ3A4HmYu+kIcWDxnIsbqWUT0aQ46HWpJ9tNT2REdkYs3y8lgzcWJ/il0G3L9i6x3UuI5MzjAI+iNCFNpgcD7dOYGSAbRcCY4jSIF2R+nEQ7Dy3J9kRuJ1orel/eZnhwJHTu59ZJtIHPwQvY6hI+I7HzQwohhOAOlVxZJxPkQdw6qbzYT/DaAPtvh28hZ+kE/7NkPH4Q1zWWo6sb2G2Lp3A+uWvM1/8DBcTUVZsQ8JZbi+FsR+wVbF3Em/hZuDnHh7/plWWWfNOZlWfCtU+nqHkmA1ezhC7r66W40wPBiQLGrhrRDNvGxNsZo5HhlXFeGje6QwPsG3gwZsytRCCzbRrTbJ5Du7GRCOuBe6t4Z3qavZYP8UCPX8kBL9QFQjuC/zpRfi7/YGkqjdSvoP7UFZUazfzn6xhDwzzPXwOn5VOcJov5WlNsBN+foizxnJSQwszddn02IHA1h6UYzhwjk5Ht85AiWrUv12O+hSXApN9O3gL23TWcPdb4+nvQ3k+PIPVcv14CPyL0WXgTx21HGKaerYktOCR5+PNvGgDxkbyqKFt2NkZOBPO27hp/p9RWT7PH/c/u9tw7qmsX2V5BBupoMEfZnOMHvZb5uq5IyH5ESF8pZJIOA5YvcB/82CKmNZaiiaUQccRzbxiLXsBSzysg0vTjRxX6kK0Jtk85umHOGM4O97C1bpceiUGXOFBOS5GM2S7swaafRVF+1PExCRfGXdIcQaW6z2sg90GVXG9bSptlr/Xmqjp6OAOLN/zsI5eXgYHrN/E0t7cxAuuIcUTmGDZ6TyyRX+4O2AmnBeI2CBdH2UhWLbJ9vEMzfbjIRuth/IiYuwxYhpv6ZkjITtKVSC4uBEHqW0JsDMhTfFvSPF/GA7Fv2C4BsNVmQQHlqoAHyTZIJbjUQj0YTNsl8eb+bUulT7ZCtiphPuPA4frNHTrEPBjFov08B7uEsiEsSMbz3A8lrs9rIfD2hdwWal2bg+mashCbgZ297Bu3u5n2b23q56KNipY38xtmGhlcbOwU80CbrMHB5qq+gREbpCul9XCCcBd3W3o8xTFlejAMrZ+Kv/Q80ZK4FCiFSNOiqeQA07DgV1VpZEUAw4La2f1zdzvaTDcnmSLLqj28QztsjyECRRaIuwe2a3xWiboMimISSXc9wSgRqcg1OeilOm5MzPJ5mIcATzr4Uv0SekE55ZgvybTwJXWepnhNBODUWu39D4kU1GntdU3c4W1kftKtF+6PnCwztsgWoN0vXAWcG13G704juqODmZ6OkVxRXIKgColNgw/YnFI6f2Iws322BPFDImyvcLcmcfBcAdaw/2ZBN8Na4cfj2dwroqHgY08rI/HFgzhWNNU9h9Ow7zOvlWC/a6G+zAsK7cGsI2qIbJG5n9CMaKZz5f2Z2/gJQ/roimTIBHmDtONXIjleN8qwsBCG2NMXapvSfGKvi6zvoWzgWuidMUZOCGdoCng5leAf1lzCuRy4JLuNrJNxOoGcROwR6TOsyWpAKjigV1UBYIbcNq+QH9rR1VnpG0LrBLmDn0NhgsMtvBwurH4M7tfa6JmaRV3QHgDZj3ol/6lqh/7b9pEhy6PQlZruC+Vecfj59JU3+wUxnuqlE//dsNLWJgzwZKNhc3C1LZkOPHc0glOMcbLRFGfY9m7YWrfBxmLfmMwYONpTrSGOyN20Z2bSdIYcNuzgelldtO5FYJNU08vYApunXqUNMVbmKZni3hAgw1S6LbwI1VlpNXgBrFCFU9xBnCdh/UxFMPs9MTixQazB1M1ZAG34DJN++a1rGHM8Mks1qVRcEfhZkKHpV/QvrWob6Rz2HMjmknnDKOAeZ7VhYlZrm5PMLqYO8kkORz8e7810JnLMTbeUphlnqGMbJuZZK17SDwdpavOWqa2JflxwM2TwB1lcsN5DDiWAPG92ho525TmC1bvzytcVZ/iPD1XxBObqQqkgG1hILC+qjLyNi1BB9PG04yzAWJelsAIm2NWa5I1itAncLFCYKyHx91mLGNGNPOJLomiGACcEuL+DgHWVbWrb6RzWMSHRTNvxyx7A5959v5ZnYM7Mo0Fm23/Fekku1mXkdG3mYs2B+NGTGNWof5gLMTG9PmALPsA/4zQhRczlpsyjYGWxmVxGReiHk/pr8AB0P009bZGjjaG8yN2fPfVp0PtrIh0pw4YrGoQChN3ZyO07EJtoZfMTLLWBMs6HHrZYLMqy6y5pxV2eWV7ggt8jBUCfGSqGBVv4X1dDkV1KuEt2Z2o6vb7HigFNbJU/ZG6Fl6wOfYHlnlWJ4MwPNA2kW8X8o+2NrINlnvwMDmENUxqSHFDIf9mqI1qzeksynaxF4Y5Ebr4aqxhZmZCoODkHbgveH+P6I3mLWAfAoxYp5PsYwzXuj5lNBj4U0cth5iZZPVMEc9soCoQ3Jf5vmal1Oyr8vCNUu04Hwx3H6x/2XktbJPt4p7XmgrTSU8nOdnCLz08/58aw+j4FP6lS6Ho1gCODmE/u+BhfDVPDQDqVQ06j33RMI3HCbiiKOTn2Oomx6z2BOsV4u+1J9k0ZphFyLEzA757X9DQTHOh/27oo6LrXEYm28Uo6H3qxBJYzcYCBxFdhMsA9WbEbjJpCLZmuG0i22K5rQAvWmFeQK8sgwPWb2KpnifioVpVgeACua+mtiSlPo8bXsLCqmr2xH3Y8s1utfO53jb1rQ+bTnIo1sv4pR3GcnC8mRd1GYQmGcI70emq5sAGE6EP5LJSq5dy5/Up/oBhvIf1Es/B7HmnM7wvf6RtPA05yywo/PL6vrJwVTzFr4rxt0syrW+d6bxjDHsDn0boAlyrB0FEPwRGA3MjcmwLgTHAe91tOHcCmxl3oQyKzJkzzOmAPdZPsUDPEfHUaqoCKVBbWFVVqHZQCMMnMy+bZTTWw76M4fDM/N4PPrUl2AXLDfi33DZnDUfFW3hEl0CoRgL7FvHvb0bEMnWrTyTlci7rm7nCwsUe1s03Ojt5ZE6idx+sMpNYy8SYDazj4bHdU8yQPSWbQRNv5sW2BPsbmAX0j8hFOMLmmPXeSeyw7pXM72bb/wC74wLX13p8TJ8DewMvd7dheiIjsjlmYRkSoRvnh+QYvV4L7XqGFMRlwCtlcBw1uNhTW+FSNZd6zXgUBx3+CDxeBm2hP9AA/DD/E4t4WxjoQZ2+CvwJaIVIfTiozb/I7gxsWOKyeLEUYJ3pvNPayB4xeMq7vozh5LYEcxtSXNCTX2tvZOsc3Otj39NYkvUp/ljBfYzFwPnAX3CrAs4K8Z48CbiniH87rBlFFmjJH8vmwAVEb2auDx/JPwMexcVunk+A2MCe9W+/n+/flnq1jBf92/oUv8wkGAr8zLPztUV/uHtOE6N7skrowzNYraOThzFs7OFz7MnFOQ4tZsiekjbqhhRPpJMcg+UWIhJ01sBm/WqYNfc0dguQ0vgVXED0h3DrgH2TBQ6H7lNaZiaxlu3iUUzx0lgXwacmx+j4NP6NFMrDwINldkxDcVP7kyW8J0Zxqvz/ATPKrC1sAPwGOLi0j5k+KeWz9B1cvIlnIt4ODG4QqxnYotLvCSNaeLk1wQExy0MYv/oyBs7PJFkUb6YlyPatSb6RszyAhx8NLPyqvsW/9OchOwO4Iv+/nwLagCtD2vf2wDa4wbNCiuf72mH5Jf9/tslTuA8J90TwHlxKLcA5RGul0PLUAecC40pYp8aTBmVtmhPTDQwxloM8u/fvVLOA220TB5kmurrb/rUmajoWMBMCxecO24vV/dlv5KXFDZ5f8kGj+mZusy4DSJRuq9tms9xmmwK97P4Jlza3y7OjsMDxQR5qmXEMslnu83GUdyU3qk5jOTg+jb8hsnIf5jvNu4NipFW4/wA/zrcH6Zl/AD8g+oNXXzwfn8DN0LxbpxZGpLzty2AtU9ONHNLddq1J6mOW2cAwD1vcFT2dSVamnvjaf1+dvy+HZVIR/uYEwpvl/SGQ+tr/Nwv/MrH5bCKQIPqDVwDtwIm4JAW20k+smUm2c3WOxK2O8s2+6QVcZ7sZ8LNNxGoXcBN+Lkl+u59l76GXFv/a8WLWU0OKKw1cFLHu7d7phVxvg40s3wfFWwfaS2cA13e30YvjqLYDuTP/YhIVOWsVQ0J67En8m1ospfFb4DpVQ2BLgSPyL0/lpBM4jOhmFi6o+hbus5bjPHwRihnDTZkke65og3fOZPWY5UEoTNanAvcnb4sP8TLIcCks+dp/Z6HwGaxW4kAKmxV4NeCEEMt/OS40yNfvY/o4F8wDIbe3sNwMXKjTC+s3sXRA1s8suwaOyiT4zcq2ySykGfeh1TfpGIxauyWcJH3eLNurS3EOcE2ULgJjOTLTyK8Dbj4DNx3Vl5ezyd33qTDxQVyNWXGn0MvzApPqW7hdt2nphVsIEA9OKsKv8i9P0r2bgDfK9NiW4ZZgCNDQwo3GcLZv5bJQbS13phNs9/V/a00ycMAyHgC+7WGH5fElOY4xTX6leffM9cDHIe2rCjf7plB+Rnjxpz7n/y+/lN4p53v9JcAinWJYczqLPM6ye0a6cfkZSzNJLsAywcMyfxzLsntdinfD2qE3A1gGbDzNidZwZ6SuAsPP25KBpxxfyP9O7S3FC/qZQTZsTzDZwk8idToMF8ZTJa9jiba7VAUCpEFp7HvwXClnD0O3MS8rRryZXxvLFA+LNgi4t3083/ri/7AHUxWz3IqLb+RZ95G/Vi9j/5HTtbyrG4sJLw4WuDh+hUhJ3w9oDLHcv6f8ZsGG6U3Ke7btYuAxnWbH8yy7l2QSX10Rkk5ysrX+fTzCzZrdr246r4e5U68Cp3u+NnXF5bb8ti3BMQE3nwjcWKKiPggcQ4Dp/5kEZ1lX1uicB7ixrplf6bYsffSqqkDyXlcVdMsCL5T5MXaBkoF8WV0Lp2O7D0NQAmvmqni0PcF6FkwmztXA/h6W861YP/YZdgWfqTUFchnhLYNblcIs+zsYWDekMucoz6VvYaqED1bq03zJOtN5J+diSS3wb2iB37UlGAuQTnAYlukevnd3xmBsfYrnwt63d5n/1m9iaQfsR7SW8ZgYzGhPMDpgZ/9nuC+6YfoLAQOwppMca6MWkwzurUvzU6MghdJ3C1UFkrdAVdCtRfxv3Bq1hTJnwLZ/zgnGMsvD4tXn4OH2BJdjONbD8rUSY9fhk5mnlhTYB7g4PmEZD/Tv4984LcTy3o+bQSS9N7cCjlHPsa8Z0cLLNsdY/Et0UGUsN7U1cjZwA/6N2eSs4ei6FA+VYucxHxvT+ikWdMKeGOZE5QKwUJ1j+fEXlqMTOAj4c0jFex0YQ4AlEG2N7I1lBh6l8A5Q+c+bJRxuZipejRTmpqwqELWFwLJqC5Vpqxl0ZmOMBZ71sHjftHCSh+X62MAe9VNpVQvqsckhXod1wOF9+P1dge+GXDeiZ1mA11X5uoZpPI7hEO/agGGAMVxAeFlMe1A0JtU3c1up9h/ztTGtl6I928UoCCeafYEMBB5obWSLANsuwc00+1eRy9QGjAY+6W7D1ka2MYbbcOv2o3InfrWrgzHxGRUxA0BERMQbI5r5fGl/9gZeUm0E6Pfl2DeeKtuEB8X2b1wojLBMpPcfc8OcffUCfg4ii0RGfTP3WsspqolAmkodbzrmc+2sM513bIw9TLSW9NTGDLMykwKte/8IGAW8X6SyfAzsHuTvtyfZNGaYBawSobpuMzHGrHsl83UvERERCd+Gl7Aw28UYCC8DUdQY6DSGg+qnhTbzvlyFOdNoM1x8nLB+r7cuVbMQ6buGFq4CzlNNrPRZdmV9qvR1FPO+MU3lpVyMAyBSWVrqbZbZc09jWIBt23DL+z4pcBmWAPsSILV523gaci6OxRoRquOPTBWjNA1fRESktNa5jEzORG7WfFhy1nJUvDn02Kfl6Gng+RD3N6kXv3Ma4YXhmAPcrWYhUqAX+BRNFlpUE8thubsuzXgfihKLQn01TOVJA4cSrfXJI3Nd3D/vZFYNsO1rBIxRFVAnMJYAMbbaTmFNU8WjwDoRqtsl5NgvPqXoyy9FREQkgBHNvG1jXmZ0KikDk+pbuF01UTBTQ9zXbsCWPdg+DhwWYvmaQfFfRQqpvpaJwB9VE195kD2+JMdhvsSbjkWl3uIp7rH4MeoXlIXvd/bnnrfGB8pkEjhLYPe75XjoPitAZhyDTA33AZtEqCOoafgiIiIeapjKSzbGgViWqjYAOK/UsULK0F3AOyHuL9mDbScQXsDl+cD1ag4iBX7XbCK3oJajgEdVG2Dgr9XL2H/kdH9Ww8WiVIENKa40hgsjddYtuw6q4nrbFKiuHwSOoW9ZIk4Dft/dRi+Oozo3iDuw/DBKtZkzHK9p+CIiIp721abyJLHIzZovfKff8rv6FE1qEQWXJdwlPocCIwJstxpwQojlugL4TM1BpPA2baKjpoaxGP5W4VXxVqwf+wy7wq97TSxqtRhv5hwMl0Ws2Idl5jM94La3AI293M/FBJhabcHUDeQq47ITRoaF0xqaux+cExERkdJRRifuqctwqlpC0VyLS4QUhmoIdC6PB2pDKtMy4HI1A5HiGXopn5oYe+IyoFaiNlPFqOGTmedbwWJRrM14GwkDd0Sq0IaTM0l+HnDr6fQ808pNwC+DbNjeyG8xHBup+rP8piEVatwDERER6aWGFq6y8KsKPPQnlmQ51JdYIWVqCfC7EPd3IrD6Sv69H275YFhuAdrVDESKKz6Fj6q6GG0q73r7yMDu8Sm852PhIjmAZWaSnV/LEcBjUSq3tfw6k+BnATc/A7gu4LYPAD8lwNLDdCOnW9OrrCqlqzfDzfEWfqHbqIiISHQ0pLjAWJor5XgtvFBT41eskDI2HUKLtTY4389ekR8D64bXzPRBVyQswy9jTizH7hjmV8ghL7GwbzzFG74WMBbVmt20iY4BWQ7C8o8IFdtY+F2mkYMCPqDG0X163Odx6/O7Df6eSXAEhkuidJ4NPFi/OseavsUFExHpjf6qApG+qWthkqEilv+/XW3ZZ+ilfKqzHop5wM0h7q8RN9NqecL8MPwwLnu5iIRk+DRetYYxuNmf5azDWA5sSPF/PhcyFuUaXnM6i6qq2RN4K0LFrrJwc6aRHQJsmwWOAJ5Zwb+/CowBFnf3h1onMAaXrcREpaIM/CXWj0NMU58zM4qI9Mb6qgKRPj/LbWYJx9sA2ZEjLB2DUWu38IHOeKimEN4HznWBscv5/3cBvhvyMYtIyBqm8jwm2KSRiMpZw1HxFh7xvaCxqNf08MnMy2YZjWVuhHpzA6zh/vREtgyw9efAPsBLX/v/W3GDV91OZ2xN8v1YjNutC0QZlTp6PWsYM3xy94NzIiJFUAP8QNUg0ndbzaAztoSxwHNleHgLbIy96lK8qzMdun/hwmiEZXkzrU4Lcf//AB7XaRcpjfpm7jcBw/ZEjbEkG5r5YxTKGiuHCl9nOu/kYA9gQYSKPZgcD7dOYGSAbRfiBqu+6Bx9BOyOG8RaqdYJjIxZ7gdWjVDdpE2MMSOa+US3ShEpkf2BNVQNIoURn8GSDtgbeLmMDmsJsHfD1P/5yCjhmRzivrYCdvrSf28G7Bni/hX7SqTUz7IUNxnD2eV0TNZyTryFaVEpb6xcKn5ECy/bGAdCpAJnDquK8dC80xkeYNsMMAqYA+yL++q0Uq1J6mMxZgPDIlQnHxsY5WvWAxGpCKsAvy7Rvj9X9Uu5Wj/Fgpz5yge5yDLQGYOx9amynFUWJU/j4sGG5cuzsE4jvNAcbcDtOt0ipRdv5temXAaULVc0tHBhlIocK6fG1DCVJ40LaJ6NTpthw85OHpmToDbA5m8Dm0D3gdXeOZPVY5ZZhJcVpVAvbvv5nPVARMre6sC9wIYl2r+WTUtZG9FMOmcYBZGOF2VzhuPrUmUd1ytKwsx0uRewMRAHDgtxvy1Ap061iB/qUpxWBglK/hAfwvioFTpWbo0pnuIeazg1YsXeor/lrjlNDAiwbbczzFqTDBywjAeALSJUB1kDh+tLpoiUyCDgSOAFYNdSvRTjloyLlLURzbwds+wDfBbF8lvDpIbmisisGBV3Av8JaV8GmAhMwMVKDMMi4GqdZhF/lEGCkseWZDnWNJGLWsH7lWODamjmd5kEcQvnRKgztHPNAm6zB3OQmdn7GWT2YKoyOW7BsH2U+oIYjo83c49uh+KBAaqCQE7CfYmOuoG4WFcjPXgmtgNL1bSkEtS18EJbgv0MzAL6R+alxXBhfXOoM36ke1kgBaHFcDkq5Hv11ejjhoh3tppBZ2YcY+0qzMbyw8g8x+Av/To4YOQVkQq99F/9yrVBxVP8Ku2W5UVpWtx+6XouB07szS9bMJl6ZgAHROpkWc6sT3G9boPiifVVBYFslP+RwnlHVSCVpCHFE5kEh1q4A6jyv7vCjPrm6HwcrTDXAU2Ek3xjAOF97OqE6ARXFqk08RksaTuFfU01z+BC/fjutaxhTPyKaM6AhjJcQviVBlVLwrhOUWQYOCGdoKk3v5tJ8Btcas8oHfBl9S38Vrc/8cgOqgIpkX+qCqTiOv/RCf1wb30tp+iMeWsxcGUZHtdM4H2dXhF/NVzOxzbL7uB9ErJWYxkzoplPolzfZT2AZZrILavlKFyGkig5ty3Zs1lYmSSNwBkRO85b4s1M0G1PPDIE2KcE+7WqegH+rCqQiuz8N/M7LL/xt0PJn5dkOcQ00aWz5bXLKL9l2FN0WkUi8BybTlvMsBewxNMiLrIxdou3RH9APFbujan/p6yKZViUymyg02Z71risC14ZtY7VBu3jGKhbnnjkQihJm1TcI7FE72OLSEFkxjGImL+zX41l04HVbKwz5b25wM1ldDxPAH/XaRWJhqxlB1xSIB8NNjn2KId6LusBrMw4Btkc92Ii1emw1nDCiGnM6skv1Tdzv7UcR7RmcvzADuI221S+sdgkUn5GL+PPFcAiVX/F+yuQUTVIpXlxHNW5QdzhcwBcC6ubHLMyk1hXZ8x7UymfWc2afSUSEelGDjFuFqjPmtsSjI16XZftANaL46i2A7kzShkBAKzh9Prm3gU0b2jhRgvnRuxU7dO+gGutS0ssUgpDcdmLZpTwnvipTkPFu0tVIJXGgqkbxAwDoyNQ3LjNMnvuadGa1V+B3gAeKIPjeA14SKdTxH+tCXbC8Hv8H1upMnBLupFRUa7vspz5YsG0D+IaC3tGrOiXNjT37WtLQ4oL2hKsaaAxQufr6PYk76PMPlEwFtisDI5jIC7e1ebAdkBNicvzrppWResAfq9qkErTnmAycEyEijyyq4sH5p3MLsMinMGpAkyhNPEsC6mcZpKJlK3WJJvHLHcD/SNS5BoMd6QnslP9VP4RxTovywGs9kamWDg6SmW2hpvrm/l5If5WfS0TMwuoA34cmeO3nJ1J8HE8RUq3Qq8doyoouAXAPFVDRfsj8IGqQSpJupEzLUyMWrkNbN1Zw92vNbHXpk106Ex66SngeWDbiJb/A+BWnUYRzy/UJBt05XgUQ23Eij6YHI+0TmC7EdN4K2r1XnZLCNsaOdsakhHrDD1YvzrHmmBfWrbo9u81kVvgsi8+GqV6sDC1rTFaA48iBfCGqqCi5YBLVQ1SSTKNHInh4ggfwm6187neNpV/MqQIa45w2aej5C4ifj/HJrFWl2UWhuERPYShVTEemnd69MpfVg/etkaONobzo1RmA3+J9Qucmnk/XDaS8d1tuGkTHTU1jCVa2UtMzHBNprE8MiSIBPSMqqCi/QF4RdUglaItwV7WcD1Rj31pODyzkBadUW/dCbwTwXIvAX6n0yfir8w4Btku7ge+GeXjsLBhZyePzElEawZZ2QxgpRvZ1xiujViH6LWsYczwySwOsO1OwG1AFS7g9MHd/cLQS/k0lmVP4M0IXUjV1nBXW4If6PYoFeJJVUHFWgycrWqQStHayDYGbqdcQlhYTk0nOE1n1ktZiOQA43XAxzp9In56cRzVdhB3YSK7RPnrtuhvueut8ZGJ4VUeA1jtSXYkeh2iNmMZM6KZT4I0LOBuYMCXztvN0H0GgbrpfNjPMBrL3AjVzSAD96Uboz2qLRLAEjQDq5L9CgXwlwrRPp5vxQyzgFXK7NAuTSc5VmfYS9dBoH62L7KgWLAivrJg4oO4BsprtZA17DyoitvswVRFobyRH8BqTbJ5Du7G/HdwJwo+NrB7vIX3A2y7IfAI/M/UvhrgDmDL7v7A2s38J+cutAURqqO1MMxOT2SEbpdSxu6FQDMwpfw8DVp+JJWhNUl9ropZwBpleHgGy9WZBPvrTHtnMXBlhMp7N9Fc9ihSEdoTTI5aorge2L89zmVRKGikB7A+SLJBleURLEMiVOwl5Ng3ngoUuHkoMAtWGFxtMG5wa6Pu/tCIFl62MQ4ElkWorkbYHLPeOylS51ekJ25SFVSkecDhuK/tImWt7RTWjFlmA+uW8WFWWbg1nWA7nXHvTCM6AdGn6HSJ+CmqmXN7whpOTDfyK9/LGdkBrPbxDO2yzLJQF5UyG+iMwdj6afw5wOZBB6e6G+T6r4apPGng0Ci9NBnYrF8NszLjGKRbp5SZt4lYplApiM+BA4G0qkLKXWuSgaaae4FNKuBwBwL3ZhIVcaxRMg+4JQLlfA54XqdLxD+ZBEdEPHNuT16+z8s0MsHnIkZyAOvj8QzOVfEw0Yr8b3OG4+tSPBRg28DLA/NWtMzwf8RT3GMDZDH07ELa1g7iNttUJkFfRZzfoBk4laYLOCT/oiJS1uzBVMUst0JFzUpa08LszKSynm0WRVMA63kZJ+s0ifgnnWQ36+LpmUo5ZmtobmvsPmFcqURuAOu1JmqWVnEH8N1INQQ4raGZ3wfYtAr3pWhUD3fxRaD3bjMINKS40sBFETv1+7Qv4FpbQTcPKWtz0PLBSrMMlz32flWFlH3nF0wmztVQkXGh6m2OWa3Jsoz3FVVvAA96XL63gPt0mkT80t7I1ljuxk0uqSQxY7g53djj8YhwChepDlETsSELg2Xf86wjd3FDiqkBN08BY3u5q52A26D7DAJ1Kc4BrolYPR7dnuAC3U6lDCSBDlVDxVgA7AXco6qQSpBJcCmmgjPzWb5VZZk197Syy7gYZT7PcGoGcjpFIv5oTfKNnOEBYNUKrYIaDHdkEv5NGorUAFZmIc3W+judbfl9GG6qT/HLgJtfCJzax13uD91nEDBg42lOtHBXxOrzl5kECd1WJcIexGUflMrwKvB94HFVhVSCdCOnAqdVej1Y2CbXxe0Kf+CNp4AXPCzXRxBohYaIhOT9U4nnk48Mq/CqGGzh4baJ3SeMC1NkBrDSSc7D+h1Q7H8YHqiv5acm2Lr7kyDwQFd3ToTuMwiYmWSt4UjgmYh1Cqe2NZZtClMpb/OAcaqGipADpgPb4paHiJS9TJLDMbSoJv7bX9krvZDrFf7AGz7OwroCWKJTI+KHj8czuKofDwLrqTYAGEqOh+ad3n3CuLBEYgCrLcmJWP9TOn6t1/J8VRWHmia6Amx9KAFmTfXQeQQI1j6imc+X9mcf4KUI1a6JGa7JNLKH7ikSITngaCCjqih7LwE7AxOAxaoOqQTpJLtZy/VEOMN1UTosliMzyQrJXuW/O3ExKH2xFLhcp0XED681UbO0H3cB31FtfOk5Bht0dfLonET3CePC4H0nI5Ngf2MLPrhTVBZe7epgzPDJgV5cdgFuKNK5SEH3Sy43vISF2S7GAO9GqI6rreGutgQ/0G1FIuIsXLZQKV9vAT/BJRl5WtUhlaKCA90G7bSc2ZZgoiqi5LK4eFO+uAk3M1tESn2bbiI2ZAG3YNlVtbHcd+/N+8Pdc5oYUOqyeD2A1TaRnW3AoOQeaTUxxqx7JfMDbLsVLqhv/yKe30BB79e5jEzOMCpiD9JBBu7LTGJj3VbEcyngUlVDWeoCHgb2BTYGbkTBeKWCtE5gZIUHug3EwOS2BMeoJkruOuATD8qRg8AJnkSkyDILSNneJ1KrCBZ2qllQ+tiO3g5gtU3k2ybHXRRvcKcYPjJV7F4/ldYA234DeABYrchlqgHuALbsbsMRzbwds+wNfBahOl/LZnk0PZERuq2Ipy4HJqkaysqHwEzgBKAOGA3cjwaupMK8fyrxWEyBbgMyMZjRnmC0qqKkFgO/86AcDwL/0ukQKb10giYChN4RAPZNLyjt0mcvM6O0TmCkyfEo+LHOMqDPYpYxdVMCPYziwGxg7ZDKNhi3dGl74M2VbVjXwgutEzikKsY9FqojUvcjyPHAnAQ7rp9ige4r4pFfAReU6bFdSWmzmFYD14d4H/2yn+I+QAgVk2Gtv071V713EkNi/XgEWNfD4j1tDHdZS8qnQlmotvDH1iS7jmjmr2pFJTMd92GplNf1FJ0Gr1RXwDFqifdyZJKMs5ZzPSzaRxZOMnA1no2JGBiXTtBen6JJHU/yX/OqeAQbna95BjqxjK1rCZSed3UoSWaDocAs3CDW3JVtOGIaszJJjsFyE9EJxrpFjeWhzDh2jc9QNhcpuYXAz3CzH8vVm8BjJS7Dz4D7CD/D1zXAFih2CbhZxDVAR5kf53o61f9fa5KBMcu9wGa+lc3Cq9ll7L/ulcxPJxgC3r2YrBqzPJiZxI/iUzQDp0Tm4kJsHFei/b8APKXT4JU1KuAY19Fp/qp0kn2s9TKRwhJy7NcwjT+3TaTN5HgcGORZGc/NJJkfbw4/87BXgxP/TVtpWT9Cbd/mLD+LtwQKzjwQt8zkOyUq64a4mVi13W0Yb+ZWLD+P1F3IsK0dxG2lXpcrFe954HuU9+CVLx4ArirBftcGriX8gTM/77zln61nPdAy9f92eg6mylhuBn7kYfHavhyHNP91eLqH5VzLZpmt8AclNRWwJdq3Zl/55zsVcIzb6TR/6WExkW2x3IZnE3oMdMZgbP00/gzQMJXnMRyKi7nqV3/AMrUtyY/D3q83A1itSQYurSrp4E7vTpxhUkMLNwbYtAq86PBtAcFii9W38FtjI/eQ3Se9gOusXiwlfB8D4/IdhHdUHaE5Dfh3Cfa7Ny4GlsBhZX58R+kU5/s8YDINXGXgQA+L95GpYtTX45DGa0kYPz8oNJDjodZkRcz88NHruBURYXsXuFPV750toKyTQm2eP0YB2pNsaiyz8G9Wk7WGE+pSPPSVd/Jm7jcufIX1rLwxY7kpk2T3UHfqxZn6/1/zdohS4zdwUUNzoHS8BjdLwJcO384EzO5Y18LpwA0ROy9HtSfKNu6Q+Gc+cB4wErdOXYG8w7U4P8DQWYJ9TynzDm9QJwDfKtNjqwOSOsVOppFfY0u27GpllpBjv+UtyTNN5ObXcgSlX/K8PJvGcjw49zRWUesqickl2GcLHs6kEAB+S3RCp/TUxTq9Ttt4GnKWh7AM8bB4Z9Q3c/3y/iGe4iYL53hY5hpruSMzge+FtcOSX6Sef81bIQM31qUCN6KLwbsO3/7AZQGO07YvYZzlqyPBvrPwy7akXjqkqP6Ky1iyHtCEG8iS0niB0gTLH4SbWVvpgVEH4p4R65XZca0O/BG87OSGLp3kZIx/oQW+vtxieTZtomNAloOAf3rYodw2m1X4gxJ5Kv/8CMsC3PJz8dPeuEHNclvFcRawl04vtJ3CmqaKR/EzLMDl9amVD6o3pLjI2ECTZ8K2mo3xULqRb4axs5IPYHn8NW9l7q+r5TgTbBrfKcCZnh7HiQQYyd1qBp2xJYzFrLhz6CNjmdLWyNG6XUsBO573AQngm8A2uEHgRaoaL/waSnKP+h6UJguLZ9YBXs5fH4PL4Hi2A57FJT6peOkkh2K9jCVlczDu68stlmfN6SzKdrEXbgmXZ0fB3gp/UDJhhsq4CvhUVe61JPBE/tkedWviMkb/WqfVhSsyNdwHbOJh8f4Qr2VCkA3rWphkCBS+KGxDifHQuwnqir2jkn7tSSc4BSIWKBz+zyzhUJMKNP33MGCa58dzfv7FfKUd0/gMlrSdwr6mH89iIrNkxsQM12Qa+SBgkH3p3h+BORVwnEuAz/LXxru4GEtpnf6v8G2pZBa3lPCfuMx4YToTeBh4usLPy2pAM3AhbmbDq8AnEWrTA3BLBn9E6ZdEehPnoi3BLlhuwMOlNdZwekNz8DAH61xGpjXJqJjlWVwyBn86LC78wfukOFvPlVDdme/XFDuBVAelSyhg1Q56ZCfgReA14BmgjWgt+1wL2BTYhQAxjyuhr2gPpipjuRX4oYfn64klWY41TcHqyoB9cQk/qxvE2sAefj2UWb8GHnnvJHb8IplKkZ6XpZFOcBhu6UVk1hrnUzPvEPCE7IoLDtk/AoeWAw4hQJDTtvE0mCr+TLQyMi2xsFtDiv8rs47e1rhlbGHaIf8wF7+MBmaFvM/jgOs8rIufUpolGm24AKmlXkp6Kn5mXZOeeQ3YrNSFyCTZylqeBFb1roYMl9U3M743v9reyNY5wxM+HpeBZDxFyoOizACOD3mfQ3AfjsI2AYqeCv4G4NhSvXYB8RD3dwYunlRvbYCS4ZSLH+Cyc5fy/d1kElyT7x/65sXqDnYedgWf9fj5PI5BdhCP5evYKxae6qxlz/WbWFqMv1+SwaO2CewKXE+UAuUZ5nTB7gEHr7YG7iEag1dftINbgFHdbdgwnbaqHGMwkYr3M8jAfZlJCrZcAJr6Lr63hetwMwXD1oAfA0e6RnV9FURrkm9YywP4OHgFf4ivTmNvf7muhRdsjv1xs2J86/hPreDwB5+VaL/X4DIJF1NKzwU9x/QsC18mycV4OHhl4J1+lr17M3gFbnWUqWJfSpOJu7tj27FmAbcXK7Zj6ANI7Y1sbWKRGtwB+Igco9dL0R5g25HgbYdvZWpwM7C27G7D4dN41RrG4JZZRcVaNsuj6YmRmjnmowWqAsnzeRD7FAh0vy60I4DDdY1K1K+v908lHrPMxrNldvme8eM9WW6xIg3TeNwYjsW/5dBfhD/Yo8La/CJKt0xrCS4+VbE8Cryk53WP2oIyOuu9oc/SSU7G+heL2kB7rItRa7fwQV/+TnwKHxFjFNDq4bnfN7OQK4rxh0MdwGqdwMicidzgzqcmx571LYFGN+uB2cCwiN5kBgOPABt12/GbyvMYDiVaa8JH2Byz3jtJGaV6aZmnN0gpjbc8LttHwE8oTdyPK4B1S3jsWnZRHt4u1Y4/Hs/gqn48iIdZJS28UL2M/UdOZ1kh/l68mVuxvZ/JVcTjrLaGu9oS/i0NKcc2nzcNirPcBVaeWUzPheX2N9v0GIi8JZTmYyLgdfKRRTbGXsMvK0xM4fqptHq7OspyfCZZ+CzhoQ1gtSapj8UiN7jTYSwHx6fxtwDbro6LebUu0TYUF0tneLcXTDP3G8vJUTo4A5v1q2FWZhyD9FzpVecyq2oQ4HP8H8ycjcsSGbbVcfEdq0p03G/pOi0Lb5Zip3OaGLC0ivuB7/j4DKq27NPb5RYr7Mu0cJmxoWaiC2qQgfvCSkvugVIvg/kAF06j0F4BHqvE+0nE24MUpt2VZCZd20R29jT5SAeGg+qn8o9C/lGfV0dZy9mZBIlC/s1QTuo7Z7J6zDKLaA3u5KzhqIDZ6wbilg1+u0xuOBviZmLVdrdhvIWrsZwbqaMzbGsHcVux1uWWsVdUBZL3GtGY3n8m8HoJ9rs9cHqJjnkZmoWl+21vOpkHU1W9kJtxyTp8k4nR9+UWK1LXwukQPJthiNYKKy25+hgATKXwM3cnU/osgK+oPUgJvFqKnbY2skUsx934F64oZy1H1jcXZ0Db59VRhY7tWPQBrNYkAwcs4wFcdqbIMIaJDc2BAgFX4b7YbF9mN50tgLuCXPz1LZxvi5+9pdD2SS/gOlvCTJwR9CdVgeQ9EZFyfg4cSWkCNZ8PfL9Ex/20mmikLSX8DLNkGkgZy0Ee1sciC3vVpXi3aH0+sO1LGGfhIe+O/v+nJS/38Ac+PFdep7AZfdPAbR4c11NEL6bUU3oU6L2hpz5IskEMHrFuNrxfYwuWZEMLM4u5j/pm7reW4yj9oPn/HH4hYzsWdQDrxXFUV+W4g6gN7hjOjzcHGpAxuDTDB5TpjWfn/IO326Uw9bVMNKa4F2UROqxHpRu5UM+Xshu0ELWFL/sHlGSWaDXu40YpYj6q4x9tf8YNvoYmk+QCLKd6WBcdGA5qSPHPYu9oqxl0xpYwFsOffasEC5tX9efuOU0MKNM2/ykECtcRhkLGq5qGH5kuPyF6M5qeQsvh1VfsgfbxDO2yPITpPgxOCZwXb2FaGDtqaOFGa/mVh8+xgsV2jBWxkKZuIFfl12NGhoUZ9c2BX3YuxcO0nAW2PwHiyJgmcvNX50hc3JnIMIZftCVJ6hnTrX/hd9BuCc9CojfD59ISlfkb+X2H7WGgU001sh4Ic2dtCU6ylrM9rIechSOKtdxieeIzWGJi7IflX971V4qclrzEHsSfZS9/Al4swN/5FPeRuyLvKwXqazyrx0FkvQaFCVIexIdnsFquiocJkIisJGMLKZrC3GdDCxdaSHnYLgYZuC8ziY378keKNoDV3shvcemJo+S++lpOCbjt6cBpFXITOhE4p7uNNm2iY0CWscDfo3RwxjKlkOtyy9RNqgLJm0nIs0MK8SIMHEFpUomfBOwT8j4/gkDxG8U/WeAPYe0sk2B/g5dZmgASDSnuCHun8Sl8ZHP+piVPL+By9TGKrhCzsK4GFnh0TL+PYLu4WY+EyArt3L04juqODu4AvuthPdzfg7GFgqpPMdH6+f62ls3yaHoiI3r7B4oygJVOcIY1TIrSVWbgTx21HGKaAn0BOgK4pMJuROcD47vbaM3pLIpl2ZNoZTxx63KT7KnnzQpf/m9RNUjejREtdxvQWKJ9XwOsrY6/BPAoMDeUC2IiO9uAYQJK4Lz6VOkG1hqm0+ZrWnID49KJcL/mF1l7vt375E7oU8y1LghnuVAPvAX8JWJtYyYeZlWTbmWBW8PYkQUzfBDXArt7VwuW580SDg04tlCMZ4Wdu4Tj8POD5gibY1ZvYzsWfAAr08iRwG+idJUZeGUZHLB+E0sDbL4XLlNNJQb/bgbGdrdR3XQ+zGYZgw2nE16gG2C1tdxZiHW5ZegO4D1Vg+Q7v89EuPw3UZqAusNK8Ny4S9dtJE0JYyetjWxhcsEStZTgeRz6covlGT6NV02O/bGB+oZhOzeTLNmAfKGl8C9rVhd9W34z09P7b3PE2sZC4Fo9FiJnJvB+GDtqb2SKgaM8fI692tXBmPiM0g7AbjWDzpoaDsZ4E2Pwvwxs1q+GWZlxDOrp7xZ0AKutkb2t4XoiNLhj4T/9qtl9/VSgab7bALdDWcYfCOKLjIujuttwnem8k4M98Gv6dHcKsi63zFgqb7ahrNgFZXAMJ4XVsfqaPXHLscPSSUiDIVIwfwUeL/ZO3h/PhjH3RbbWwzq4r1TLLZYn3sLTwCH4mJbcMrWtkYMj3uY/Aa70tGzXAB/38ndTnh7THURrhQTAb/EjEL4Ef2+4OIwdZRKcZY2XcYzbTIwx617pxwzeoZfyqYmxJ/Bv72rKsK0dxG09je1YsAGs1ka2MYbbiNbgzofEGD3st4FmCn0Ll1p3lQq/MdXkH4BbdrfhiBZetjEOBJZF6Pj6vC63zMwkYjHNpGj+TGHTi5fKAlzyjVKkFJ8MoQ6QX0tpBuukd4oeSL19PEOrqpjlaZamp3sQyiE09S3cZ4w/g2pf7sMbw82ZpIdLZ4K7GBfs3EeLgd/14veewA1G+ygLkVt+2oqLJybRcDvwcrF3kmnkSAsXeXj8H5sqRtVP9SuGYnwKH1V1Mdq4Jdu+2Se9gOtsDyZAFWQAqz3JpjETucGdRQb2bJga6EtEA/AQsIbuSwAMxn29HdltxU3lSSw/KdHLYm/1aV1uGfkMohXLToqmCzgZ92WtHDxOab6QD8LNYq0JaX9LgIlqvpFwB0XO4vvxeAbnYjyCn1maXu1axv4BQzmE3/lvZgZwnodFq7GWOzIJL4MXd+c1oMXzMk4F5vXwnnuy58f0B+DJiLWVc3p4HqQ0PiWEBGdtCfbydMXXEnLsG5/iXxZbgOGXMSeWY3dPYzselW7kwqDb93kAq208DTkbucGdDixj46lAM0vWxAWXXEf3pa8YihvU6/Yrbn0Lt1s4NUoH98W63LmnVfSMu1/hAl+LtAAvldkx/QJ4pQT7/W7IL8J3Ag+rCXttEUUeaHytiZqlVdyB6X72dAl4tdxihX0ZF5fLx4yNq1l4uG2ifwOTK5HDLefu9Lycn+Bivy4KsG0XMA4fl+n8r1PBz8HiFZiPPqhGwblAupg7aE3yfeNhOB8DnTEYWz+NP/t8goZP49UYHOBjbEdj+EVbMtiS0D4NYGUmsZaJMRsitdwqZy1H1rcE+tI5CLgP2ET3pOXakIBxNBpSXGktv47U0Rm2zWZ7vi63TDyM/19GJRwvAr8sw+NaBhyMCxIbtjOAHUPc30/R12ufHQ/FW25gm4gNWcjNBIhfWQIf+bjcYkXitSSMmy3nm6HkeGje6V4uDV2eC4hOQpBngB2Ad1ayzcfA3kQnY/PrhDBTpsBuRhmxK/q9oXUCI2OW+/FvxZe1hhPqUjwUhRNV18xTeBrb0VimtCX5SXfb9XoAKzOOQTbLfZhoBbw2lmRDCzMDbFqN66T8UPekldoCgmUyqm/hbEzEsolY9u7putwykAaOJlrLPqU4FuQfcsvK9Pj+XaK2HgNuJLwg2u0QuaXcleJK4I/F3EFmIc3Wehnsewk59vN1ucVy+5BN5ObXcgTwmHdlgw26Onl0TsLL4Pxf9jjRSwjyEi5+4TG45XcfAB/iYkNOBNbFz1T1K3M5boZulJxINGa4VZqivze8fyrxmJs0M8zD4z+jvpnro3TCPI7taGKWqzNJ9uyuE91jL46j2g7kTuAHERuMODfewrRg/QBmAKN1TwpkZ1xq+qpuKtXG2zjBugGvyOjputyIWwjsle+YSWVbCuwH/KfMj/M+3LT3sK0DXBHi/h4GL7P1VLKHgcaivlUkaMIywcPnaiSWWyzPpk10DMhyEPBP/7q5bN4f7p7TxABPq+8V3MzXbASv1y7g98AuuPAZw4DtgGZcwPco+gn+Bpxfns+AMRAo+ZaUyXvDO2eyelU/ZuEGin1zeX2KyVE8cfFmZlgXLsa351i1tdyZnrDiSUQ9HsCyTcTqBnIjZuUjYx52lq6sb+H8gJtPxn1lkeD2By7r9jzMJGsNRwLPRar9GH6RafTvJaAIAxb7U36xjqR3HfXDgKcr5HgvBH5Tgv0eBhwR4v6mleg45X/9Nf8iX7QYQG1JTqQ0g7PdyWI4JirLLZZnzeksynaxF/C2h53/nfov5EbbVLhM4wXyLrAn+B3rrMIszg8+RGlW039wEwwW6vSV/3tDa5KBA5ZxP/BtD4//hniK8VE+gQ0pLsDP2I6DiHFPupFvLu8fe/xwyywgheHQSA0+wB116cAN7CyUtam3TsRlClmpEc183rWMfXAZaCLDGprTCQ4r03P3GbAv8Cc144q3DDewck+FHfdZUJI4fZcD64V8nD9XMy+pp4Dd8/fd4vV9LBt6eOxZAz+JN3Nr1E/iOpeRyRl2wsdBLEvdR0u8ihPzOi7uX0aXv3c+yp+bf0SozP8EtqfIAcOl9O8NWUstfi4bvCFey3GmDLJzx1M0Atd4WLSB1lC/vH/o0QBWW4JfQuRGGp9YnOVIMzPQdOWfAhd5fjy+Z2w5H5eFZaXWvZL5NsuewPsRaksx4IZMkt3L7CGUBn5EkVO4SyR8iFsecUeFHv8vccvswgxsuTpuWUpViPu8BEgQzWU8UTcT2IMQZg/Upzgdy8/xp4O9xMKh8VT5BGIe0Uw6Z9gJ69XL/705w+5DL+VTT8rzdH6w4X1d/t76ABcO5MkIlflV3MDbmzp9oWvLX9NFf29YL0V7P8uO+LQ6xDAtXstxpqk84ooasPFaTjAuJqcv5hnDzg0pnljRC3kgmSTjDJGLA/RyBxw0cnqgAMT7AFfhd7Du/wCb4f9XkitwaYdXqmE6bbkcuxGt7Fg11nJ3WyJi8d9W7AlgKzyM5SElecnYEqIXk6bAUrhBvA9C3OcOuMyEYWoBdsUFeJfi68LNfAs1KUJ9C5dYy764LGmllI5ZdmpIld/g+Ihm0h1D+KE13FziolgMl8TTHDSimc89qBqLW7a8G1o2GAULcZlKzyM6CT/eyfdhb9XpC83jwNaEOKC0dgsfVHewPZbbSv4ct4yvb6axXAavvmCayMVTnGwMJ1Di7IQG/hqDbeLNvLiibQINYGWSHGBtqMFmC+Htfpbd10+xIMC22wJ/APp5fDwf4gIXvomLIfCWx2WtwqW67TZl94hpvGVj7AcsiVDbGmTg3raJbBThe9Vi4PT8OVIwzMr2OXA2btBG0/GdZ/Kd4ntD3Od5wPdCPs6ngO8SscQaEfRPXEbjSyjBbKiGFh4gxpYYHi/RMMatporv1LXwQrme4PWbWFrfzNHWcBKwqAQ9/jkWdqtv5ucBVxyEMbCwBy5JQaduAZGRBZry7xtzIlLmT3GxJH9K6Qfqy9mnuJnbJXlvGHYFn9W3cBhwKkVefr/8WyyvmBzb1rd0H+85yuLNzDCGXSjN0vhlGM6vq2W7uhTvrmzDbgew2pPsaHPcSrjLG/raWZrbz7DH2i2BvqBvBswCr2IFLO+mMZr/H2RxXv6/P/C4zDW4ZUhbdtu5nsrzuRwHm2h1coaaHI+8fyrxiN2bLC5t8ia4ZAVl9QVBeuxeYFPc0mktJ/uqNlxw0v2B1hD2V40b+O8f8nHOBQ4CPwNSR9z8fId/ayjt4E39VFrrm9kNONyENOvOwDsY9q1v4Yj4FD4q95NtwDY08ztj2ZzwBr87LFxsFrPZipZahGwJbjB+MxSWIMoeyZ/DX+MCdUfB9cA3gavVnyn4e8MfgI1xM7dLuiS9PsXlxrJpiPfYxUDT/Fq2ik/jb5VwwuPNPGOW8G1jaQY6QtrtozbGFvXNnGuaup8BttLlcm0JvhODP1kXoyMqHYiFOdipIRVoSdQIXDa8ER4fUidueeMjy/m3rXBLwFbzuPzzcOuku50x1pbkJ8ZyPX4v4/x6e3tlGewQcKZfoW1N8PTHFngQF6OsbL+CV7DRuIH4nrSFC4hW+uxSqgEOxS0B26RI+3gOlwSjlDFIYrjBrPOKeJyV4CNccP4UlOTZsFKtSQZWwThrOR2WHyC1r7uwlovmfs51W82o3Nk3rY1sEzNcQIDZ6L14pVyK4VpiXFI/tWgD7DOA4wNu+xlwHS7LqZYll5dhwMm4+JCDA/7OGcBvS1jm9XEfD8YBA3QKeyWX71eeC/zdxwKmJ/BDDOdg2LNI99ir+1kuCjghpiy1J1gv59rAkRRnpdpsY7kw3tKzrOcrHCj4IMkGXTmewzA8MrVsWZozjB6RCpQRYS3cMpGNvT4i+Alw00q22SV/g+nv8XG8gxvE6nbKaTrBGbhlFlHyTM6wRwliTgQZwHoLuDnfhuYg5SrIANYXbeFmXDw96bkYsDcujtFe9P3jzge4bI/X4ddgYgzYCTgaOBC/P5L4ohP3oekm4D4iMGvhrfH0H1jFPsbwEyx79rFz2gHMspZr6zM85MkyNi9kEmyC5ThrOBJYu49/7iVr+H2/Km4ZPrno8UO7G8DK4Qbcb8ItQ/5UZ7us1QI/zj8XfsjKPzaXegDrC8NwH5+Own30l+69ku8n3oqbie69uRPYLGc4BsPhFur68rcMvILh2izcNKKZT9QcnHcT1NXAMRaOBUb29bGI4ZaqLDcOn8arvTxPy+lRN7J2l+FZ4BtRqdj88rMfx1OBUr8PAh4D7wNxJ3FfcLtzKG7pSczjY3kZly1kQXcbphNcQvgBjfvq3ngtY4NMeyygrw9gLcPFSHsNF9vmCZSdpVJ8fQBrKW7J8etfagtvqZoKqgYXBH074Nv5n5XN5rW4QeSX8z+PA8/i/zLeGlycyF3yz8yNgHU8f96E0mfOX2N/y19fT0f5BX5Ogtr+sJM17GosW1u3FKd2Jb8yz8DrOfinzTG7uoanhk9msW4LK7kBNBFr/4QtqWKUhe2MZRML67HiEB0dFt408IqxPBnL8tjwy0L9EPX1AayP8m3+H7iBqz+BXvAq1Nq4rIU7A9/B3S++/EHHlwGsL4vny7sTsMVyylyJPv3Se8OT+Z/3on6PtTF2xfCjIPdYA/+2ltdMjCeN5dHuYi8JtE1kI5NjlIGdrJutPzLfV1yerIF3rXsfeZoYj8cH81Jfg+AvdwArk+BAC38kOnGvlmH5cX0L9wXYthq4Hxdc0mcX4QIrB3UybsmCz57Mv2h3m4EpneBcXCDJqPgoZ/jBiOZQY8gMxt04PsMFjc2gdf+Vak1gw6+1BcU3C98q+Zf+L35y+fOxMP+it6RMjnMg7ivnYGBVKmOJRmf++pqPCxS8sNwPeN7pDO/KUWu6WK3LsEpVjk+rqpi/dCnz171SWeUK4a3x9F/NEu+sYrUqGGwtuVwVn1blWFiXIV3imWzfzF/fC7/U7kVWZO38c29V3GDnexEp8+q4Wca1RCiESR/Mzz/LPs33Fcv+Hju4H/WdlsExy6o5Q7Zfjk9zhkV1Q8iEPPGgLNkm+rXPJ25irJY1rBazVOcsn/brYuGnhszI6YXPvLzCCzWdZD8sf8h3VH222BjGxpt5OODx3oCb/uqzm3BLB3saKO9iXIwWn90DjCXAQEtbkqSxTMb/L/2tBvaIp3hDtzERERERERGRwlvpSHM6wXbA7RQnyGefWfiPtRwwooWXA/5KMy6on88eAA6AXo0IG1z2jeM8P8bfAScF2bB1AmNiVdyMZYinx/IiMQ4sYhBVERERERERkYq30pkt9Smei2XZkuVnwCspCw9Zw9Y9GLw6B/8Hr57HxbPq6n21cAIumKbPTsyfj26NmMasbBdbY/mHbwdh4MolWbbX4JWIiIiIiIhI0d/Bu2ebiGXmc7IxXGhLHfDOMB+YFG/mBhN8id044CrPz8VrwA4UJiDmQOBRXOY/n00ApgfZ8MVxVMdX4XSb4xxMyeOttBkYHzBhgIiIiIiIiIj0UY+C1b2boK7aMhnDYYQf6C5r4JZ+1Zw57LfM7cHv7QvcSd/SQxdbGy6T1fsF/Jur47KPfdvj487iZpzdEbiiJrJRLMdU61LYh63DWKb366Rp2BV8ptuHiIiIiIiISDh6NQg1dwKbdcU4w8DhFD9TocXwoDWc3TCVl3r4uzsCD+N3hqSPgR9BUQKA1wPPAet6fPwduMGox3ryS20T2dbkuADYLYQyLrPwexPjQi0XFBEREREREQlfn2ZRZRJskoNxBo4Ahha4bB8byw25KmY0TOXNXvz+5rgZSEM8rv8lwCjgz0Xcx0jgWWCYx/WwCNgJeh7nKjOB79kqTsJyGDCowOX6N5brq6q5fvhk5ul2ISIiIiIiIlIaBVkG+FoTNbULGU2O3THsCnyzl3/qLSyzjWH2sloeXr+Jpb38OxvgBm3qPK77TmA/4KEQ9vV94AlgFY/rYx4uZtdbvfnlOQlq+8M+FvbADQr2ZsAua+HvxvK4gQfrWniuB3HWRERERERERKRIihLHKh8razMT41s5yyYG4liGGsNQC1kMH2H5yEJ7zPCGzfF6Nstr61xGpgC7Hwo8Q+8H0cJggZ8CN4S4z72Ae/A7Ftg7uFhgH/SpcpuIpRfxjViOzXKwCfBNYxlKjKHAGliWQr4NGt7D8q8YvLHM8PL6KRbotiAiIiIiIiIixbQa8DfcAJHPP5NKVD9HADnP6+YloFZNWURERERERETKUQ3wCP4PXl1a4no6IwJ19ATQX01aRERERERERMpJDPgj/g/M3JIva6lNjkBd3U3xM1yKiIiIiIiIiISmBf8HZGbjZon5wADXR6DOrlTTFhEREREREZFycB7+D8T8BVjVs3qrBmZFoO7OVhMXERERERERkSg7Ef8HYN4Ehnlaf4OA5yJQh+PV1EVEREREREQkivYHuvB74CUNrOt5Pa4FvOF5PXYBY9XkRURERERERCRKdgaW4vegywLg2xGpzwbgfc/rcxmwm5q+iIiIiIiIiETBFsB8/B5sWQL8KGL1uhnwief1uhDYUpeAiIiIiIiIiPhsQ6Ad/5e7HRjR+t0WWOx5/X4AjNSlICIiIiIiIiI+GoYLiO7z4EoOOC7i9bwP0Ol5Pb8NrK1LQkRERERERER8Mhj4O/5nyzurTOr7+AjU9UtArS4NEREREREREfHBAOBP+D+gMq3M6v2cCNT5bKBGl4iIiIiIiIiIlNrl+D+Q0gKYMqz7pgjU/VRdIiIiIiIiIiJSanHgn/g7gHJ+mdf/GbjYXj7W/V9RLCwRERERERER8cRgYBZ+DZ58BhxRIfV/aP54far/u4FVdGmIiIiIiIiIiE9iwC+BLko/ePI6sFmF1f+3cdn/Sl33y4Ak5blkU0RERERERETKxHbAa5Rm8GQpLi5U/wqt+1WAFJAtUf2/AHxXl4CIiIiIiIiIREENbjbWIsIZOMkBdwEbq+oB+AHwHOENXH0AnISbhSciIiIiIiIiEilrAhdRvIGsLuBe4Huq6uXaF3iR4g1cvQucCgxUVYuIiIiIiIhI1K0KHA3Mpu8xsnLAP3DZ9+Kq2kA2B6YA79H3QavPgT8CY4AqVa2IiIiIiIiIlGMg7FpgR2AXXODxjYC6lWy/AHgDF1frWeARYK6aRq99E9gd2Ab4Fm7Z5YpmUOWA94G3cDO5nsQtTVyiahQRERERERGRL1RKJrdBwDBcEPIBQCdu2eGC/I8UTwwYAqyOG1w0wGfAYuBDXFZBERERERERERERERERERERERERERERERERERERERERERERERERERERERERERERERERERERERERCeL/AX1JtbZ0yxI9AAAAJXRFWHRkYXRlOmNyZWF0ZQAyMDI0LTA2LTI0VDE0OjAwOjQwKzAwOjAwFBCnuwAAACV0RVh0ZGF0ZTptb2RpZnkAMjAyNC0wNi0yNFQxNDowMDo0MCswMDowMGVNHwcAAAAASUVORK5CYII=;" parent="1" vertex="1">
                    <mxGeometry x="-150" width="139.51" height="22" as="geometry"/>
                </mxCell>
                <mxCell id="5" value="qm" style="rounded=1;whiteSpace=wrap;html=1;fillColor=#fe8e00;" parent="1" vertex="1">
                    <mxGeometry x="-110" y="80" width="130" height="30" as="geometry"/>
                </mxCell>
                <mxCell id="6" value="pct" style="rounded=1;whiteSpace=wrap;html=1;fillColor=#fe8e00;" parent="1" vertex="1">
                    <mxGeometry x="-110" y="121.5" width="130" height="30" as="geometry"/>
                </mxCell>
                <mxCell id="7" value="pvesm" style="rounded=1;whiteSpace=wrap;html=1;fillColor=#fe8e00;" parent="1" vertex="1">
                    <mxGeometry x="30" y="80" width="130" height="30" as="geometry"/>
                </mxCell>
                <mxCell id="8" value="pvecm" style="rounded=1;whiteSpace=wrap;html=1;fillColor=#fe8e00;" parent="1" vertex="1">
                    <mxGeometry x="30" y="121.5" width="130" height="30" as="geometry"/>
                </mxCell>
                <mxCell id="9" value="pveceph" style="rounded=1;whiteSpace=wrap;html=1;fillColor=#fe8e00;" parent="1" vertex="1">
                    <mxGeometry x="170" y="121.5" width="130" height="30" as="geometry"/>
                </mxCell>
                <mxCell id="10" value="pveum" style="rounded=1;whiteSpace=wrap;html=1;fillColor=#fe8e00;" parent="1" vertex="1">
                    <mxGeometry x="170" y="80" width="130" height="30" as="geometry"/>
                </mxCell>
                <mxCell id="11" value="pve-firewall" style="rounded=1;whiteSpace=wrap;html=1;fillColor=#fe8e00;" parent="1" vertex="1">
                    <mxGeometry x="310" y="121.5" width="130" height="28.5" as="geometry"/>
                </mxCell>
                <mxCell id="12" value="ha manager" style="rounded=1;whiteSpace=wrap;html=1;fillColor=#fe8e00;" parent="1" vertex="1">
                    <mxGeometry x="310" y="80" width="130" height="30" as="geometry"/>
                </mxCell>
                <mxCell id="18" value="pveproxy" style="rounded=1;whiteSpace=wrap;html=1;fillColor=#fe8e00;" parent="1" vertex="1">
                    <mxGeometry x="-100" y="200" width="130" height="30" as="geometry"/>
                </mxCell>
                <mxCell id="19" value="pvedeamon" style="rounded=1;whiteSpace=wrap;html=1;fillColor=#fe8e00;" parent="1" vertex="1">
                    <mxGeometry x="69" y="200" width="130" height="30" as="geometry"/>
                </mxCell>
                <mxCell id="20" value="pvestatd" style="rounded=1;whiteSpace=wrap;html=1;fillColor=#fe8e00;" parent="1" vertex="1">
                    <mxGeometry x="255" y="200" width="130" height="30" as="geometry"/>
                </mxCell>
                <mxCell id="21" value="pve-ha-lrm" style="rounded=1;whiteSpace=wrap;html=1;fillColor=#fe8e00;" parent="1" vertex="1">
                    <mxGeometry x="430" y="200" width="130" height="30" as="geometry"/>
                </mxCell>
                <mxCell id="22" value="pve-cluster" style="rounded=1;whiteSpace=wrap;html=1;fillColor=#fe8e00;" parent="1" vertex="1">
                    <mxGeometry x="605" y="200" width="130" height="30" as="geometry"/>
                </mxCell>
                <mxCell id="23" value="KMV" style="rounded=1;whiteSpace=wrap;html=1;fillColor=#fe8e00;" parent="1" vertex="1">
                    <mxGeometry x="-110" y="648" width="130" height="30" as="geometry"/>
                </mxCell>
                <mxCell id="24" value="AppArmor" style="rounded=1;whiteSpace=wrap;html=1;fillColor=#fe8e00;" parent="1" vertex="1">
                    <mxGeometry x="420" y="648" width="130" height="30" as="geometry"/>
                </mxCell>
                <mxCell id="25" value="cgroups" style="rounded=1;whiteSpace=wrap;html=1;fillColor=#fe8e00;" parent="1" vertex="1">
                    <mxGeometry x="570" y="648" width="130" height="30" as="geometry"/>
                </mxCell>
                <mxCell id="28" value="&lt;b&gt;&lt;font style=&quot;font-size: 15px;&quot;&gt;User Tools&lt;/font&gt;&lt;/b&gt;" style="text;html=1;strokeColor=none;fillColor=none;align=center;verticalAlign=middle;whiteSpace=wrap;rounded=0;" parent="1" vertex="1">
                    <mxGeometry x="-110" y="50" width="120" height="20" as="geometry"/>
                </mxCell>
                <mxCell id="29" value="" style="rounded=1;whiteSpace=wrap;html=1;fillColor=#A9BABA;gradientColor=default;" parent="1" vertex="1">
                    <mxGeometry x="570" y="255.5" width="200" height="140" as="geometry"/>
                </mxCell>
                <mxCell id="33" value="&lt;font color=&quot;#383333&quot;&gt;App&lt;/font&gt;" style="rounded=1;whiteSpace=wrap;html=1;fillColor=#FFFFFF;fontColor=#ffffff;strokeColor=#3700CC;" parent="1" vertex="1">
                    <mxGeometry x="670" y="300" width="90" height="37" as="geometry"/>
                </mxCell>
                <mxCell id="34" value="Text" style="text;html=1;strokeColor=none;fillColor=none;align=center;verticalAlign=middle;whiteSpace=wrap;rounded=0;strokeWidth=5;" parent="1" vertex="1">
                    <mxGeometry x="80" y="150" width="60" height="30" as="geometry"/>
                </mxCell>
                <mxCell id="35" value="Text" style="text;html=1;strokeColor=none;fillColor=none;align=center;verticalAlign=middle;whiteSpace=wrap;rounded=0;strokeWidth=5;" parent="1" vertex="1">
                    <mxGeometry x="80" y="150" width="60" height="30" as="geometry"/>
                </mxCell>
                <mxCell id="36" value="&lt;font color=&quot;#3b3737&quot; style=&quot;font-size: 18px;&quot;&gt;&lt;b&gt;Container&lt;/b&gt;&lt;/font&gt;" style="text;html=1;strokeColor=none;fillColor=none;align=center;verticalAlign=middle;whiteSpace=wrap;rounded=0;strokeWidth=5;" parent="1" vertex="1">
                    <mxGeometry x="570" y="250" width="130" height="50" as="geometry"/>
                </mxCell>
                <mxCell id="37" value="&lt;font color=&quot;#383333&quot;&gt;App&lt;/font&gt;" style="rounded=1;whiteSpace=wrap;html=1;fillColor=#FFFFFF;fontColor=#ffffff;strokeColor=#3700CC;" parent="1" vertex="1">
                    <mxGeometry x="575" y="300" width="90" height="37" as="geometry"/>
                </mxCell>
                <mxCell id="38" value="" style="rounded=1;whiteSpace=wrap;html=1;fillColor=#A9BABA;gradientColor=default;" parent="1" vertex="1">
                    <mxGeometry x="350" y="257" width="200" height="140" as="geometry"/>
                </mxCell>
                <mxCell id="39" value="&lt;font color=&quot;#383333&quot;&gt;App&lt;/font&gt;" style="rounded=1;whiteSpace=wrap;html=1;fillColor=#FFFFFF;fontColor=#ffffff;strokeColor=#3700CC;" parent="1" vertex="1">
                    <mxGeometry x="450" y="307" width="90" height="37" as="geometry"/>
                </mxCell>
                <mxCell id="40" value="&lt;font color=&quot;#383333&quot;&gt;App&lt;/font&gt;" style="rounded=1;whiteSpace=wrap;html=1;fillColor=#FFFFFF;fontColor=#ffffff;strokeColor=#3700CC;" parent="1" vertex="1">
                    <mxGeometry x="355" y="307" width="90" height="37" as="geometry"/>
                </mxCell>
                <mxCell id="41" value="&lt;font color=&quot;#3b3737&quot; style=&quot;font-size: 18px;&quot;&gt;&lt;b&gt;Container&lt;/b&gt;&lt;/font&gt;" style="text;html=1;strokeColor=none;fillColor=none;align=center;verticalAlign=middle;whiteSpace=wrap;rounded=0;strokeWidth=5;" parent="1" vertex="1">
                    <mxGeometry x="340" y="250" width="130" height="50" as="geometry"/>
                </mxCell>
                <mxCell id="42" value="" style="rounded=1;whiteSpace=wrap;html=1;fillColor=#b5c3c3;" parent="1" vertex="1">
                    <mxGeometry x="95" y="254" width="215" height="286" as="geometry"/>
                </mxCell>
                <mxCell id="container2" value="Guest OS" style="rounded=1;whiteSpace=wrap;html=1;fillColor=#00617e;strokeColor=#36393d;" parent="1" vertex="1">
                    <mxGeometry x="-122" y="490" width="180" height="30" as="geometry"/>
                </mxCell>
                <mxCell id="43" value="&lt;font color=&quot;#3b3737&quot; style=&quot;font-size: 18px;&quot;&gt;&lt;b&gt;VM Ubuntu 22&lt;/b&gt;&lt;/font&gt;" style="text;html=1;strokeColor=none;fillColor=none;align=center;verticalAlign=middle;whiteSpace=wrap;rounded=0;strokeWidth=5;" parent="1" vertex="1">
                    <mxGeometry x="-92.5" y="250" width="130" height="50" as="geometry"/>
                </mxCell>
                <mxCell id="44" value="&lt;font color=&quot;#3b3737&quot; style=&quot;font-size: 18px;&quot;&gt;&lt;b&gt;Fedora&lt;/b&gt;&lt;/font&gt;" style="text;html=1;strokeColor=none;fillColor=none;align=center;verticalAlign=middle;whiteSpace=wrap;rounded=0;strokeWidth=5;" parent="1" vertex="1">
                    <mxGeometry x="130" y="250" width="130" height="50" as="geometry"/>
                </mxCell>
                <mxCell id="46" value="Guest OS" style="rounded=1;whiteSpace=wrap;html=1;fillColor=#00617e;strokeColor=#36393d;" parent="1" vertex="1">
                    <mxGeometry x="113" y="490" width="180" height="42" as="geometry"/>
                </mxCell>
                <mxCell id="47" value="&lt;font color=&quot;#383333&quot;&gt;&lt;b&gt;Cloudfare&lt;/b&gt;&lt;/font&gt;" style="rounded=1;whiteSpace=wrap;html=1;fillColor=#FFFFFF;fontColor=#ffffff;strokeColor=#3700CC;" parent="1" vertex="1">
                    <mxGeometry x="-117.5" y="300" width="90" height="40" as="geometry"/>
                </mxCell>
                <mxCell id="48" value="&lt;font color=&quot;#383333&quot;&gt;&lt;b&gt;App&lt;/b&gt;&lt;/font&gt;" style="rounded=1;whiteSpace=wrap;html=1;fillColor=#FFFFFF;fontColor=#ffffff;strokeColor=#3700CC;" parent="1" vertex="1">
                    <mxGeometry x="-21" y="300" width="90" height="40" as="geometry"/>
                </mxCell>
                <mxCell id="49" value="&lt;font color=&quot;#383333&quot;&gt;App&lt;/font&gt;" style="rounded=1;whiteSpace=wrap;html=1;fillColor=#FFFFFF;fontColor=#ffffff;strokeColor=#3700CC;" parent="1" vertex="1">
                    <mxGeometry x="112.5" y="294" width="90" height="37" as="geometry"/>
                </mxCell>
                <mxCell id="50" value="&lt;font color=&quot;#383333&quot;&gt;App&lt;/font&gt;" style="rounded=1;whiteSpace=wrap;html=1;fillColor=#FFFFFF;fontColor=#ffffff;strokeColor=#3700CC;" parent="1" vertex="1">
                    <mxGeometry x="205" y="294" width="90" height="37" as="geometry"/>
                </mxCell>
                <mxCell id="52" value="&lt;span style=&quot;background-color: rgb(255, 255, 255);&quot;&gt;&lt;font style=&quot;font-size: 20px;&quot;&gt;&lt;b&gt;Dedicated Server&lt;/b&gt;&lt;/font&gt;&lt;/span&gt;" style="text;html=1;strokeColor=#B41F1F;fillColor=none;align=center;verticalAlign=middle;whiteSpace=wrap;rounded=0;labelBackgroundColor=#FFB366;strokeWidth=0;fontSize=18;fontColor=#3B3737;" parent="1" vertex="1">
                    <mxGeometry x="80" y="-50" width="180" height="30" as="geometry"/>
                </mxCell>
                <mxCell id="53" value="&lt;b&gt;&lt;font style=&quot;font-size: 15px;&quot;&gt;Services&lt;/font&gt;&lt;/b&gt;" style="text;html=1;strokeColor=none;fillColor=none;align=center;verticalAlign=middle;whiteSpace=wrap;rounded=0;" parent="1" vertex="1">
                    <mxGeometry x="-130" y="170" width="120" height="30" as="geometry"/>
                </mxCell>
                <mxCell id="54" value="" style="rounded=1;whiteSpace=wrap;html=1;fillColor=#FFFFFF;fontColor=#ffffff;strokeColor=#3700CC;" parent="1" vertex="1">
                    <mxGeometry x="112.5" y="337" width="87.5" height="73" as="geometry"/>
                </mxCell>
                <mxCell id="56" value="" style="shape=image;imageAspect=0;aspect=fixed;verticalLabelPosition=bottom;verticalAlign=top;image=data:image/png,UklGRsxDAABXRUJQVlA4TMBDAAAvrwQBEYcgEEhin32ImGSBQAo3uKTCGQcF2bbiRtL/gBBCwH/7325XJfOQ6YyuiP5PAP0cVcYYY11h81+mX0C1Mc49IQQ0G0J4nDNG/bZhjHMhoG8Jr7uN/vVCG+eDYKgpPM6o3yiUcW/EwIN3hn+NUJcLgimm4C71ywNfLggmK68z/DuDsj5h2vGx6ncFfb+C6Sdv1e8IyvqEZUz+4l8OridiOaPTvxUo+2JVxVv+dUDfEYsbbvWLgH4Sljje+lcA/SQsdHrUh59+EpY73upjT90Rix4tf+LZF0v/Xh922guWXx71Mcc2YhOD/YjTXrCR8qhPNxuxneH6YFNOsKXJ8Wea9thX8erz7ArY3Nd8ltmEDQ72Y4xdwiYn+xHGTrDRyfKnFzvBZovjTy52gg0Xx59a7ASbLvYzywk2PtnPK5uw+en6rDIJBzCYzykTcAhf9RmlPA7iw59P7ARHUe5PpyvhOCbzyaQDjuSrPpX4wakU95l0CQ5mMp9HKuBwvvxh5ATHU+5PIh1xRIP6FGKHY+o+g0zCQY3684cfHFb36aMTjmvUHz0OR/b+3NERhzaoD51bcGzl+sThF0fX88eNERzepD9sHhzg+5NGRRzhwB8zl+AQi/mQeXCQ708YDjjKL3+8aMFhjvrDxeI8i/1o8TjSz+cKRxzqwB8qWnCso/5IsYKDLdcHisPhtp8m7HG8/WcJRxzwwB8kOuGIR/4Y0YJDLvpDxOKci/kIsTjq9gPkwWG3Hx8ex91/eHgceP/JwRFH3n9ucMShf/lDgyOOfeSPDI44+JE/MDji6Ef+uOCIwx/5w4Ijjn/kjwqO+AaM/EHBEd+CkT8mOOKbMPKHBEd8G0b+iOCIb8TIHxAc8a34fkAEfDP6jwePb0f/4eDxDfl8NDh8S9oPBotvSvuxYPFtqT8UtHxfiP5I0IJvTOEPBI741oz8Y8IY45zz4b8Rfw1/fJxzxuhtiPjmfDdBG+Oce8If8dcY/uudc8aYY8PGOh8SGo3Bu8vw4nl8e/qlY3M5HyIaTcE7a/icKON8QJ8SvDO8aje+Qe2asXE+CPoM3hl1OLR9AvqX4C61Xhe+Rc1qqcsFQfcSHqvOhHFBMND03nqptHyPiF4oc78JA5XgzFkwT8CQw61XiRO+SSOvkXYBQw7OnAF9B4xcXqtWKODb9F0fZV/ByMOtN+/yCROMj16dB9+obm30EzHB5K9dY/tinslfK2PxrXqty+UF05TX8naxfTFb8deqaNmEFMLjnDN/VPRHZf57Oed8CGkTRK/J5QWzfS3v1OUx5/ToFeGExY/B3cZQm2yMcyEuHiKvh34EUxZ/bZJ6BBOPNy/Hi3UP3hlFXWrjfFw3+MXgO2Hi6VHbwzZi+t6shcOah8dq6l7bJ64Z7pW4Xkw/2K1Rj2AJ083rYLDeyd+aBmruV9YLehX4TlhCedSuXAHrKF4tAstiibeKBqzvVxYr8RJoj4V8zYawTVjMYJYgYKXDrWngxsWVwrsAJmAxk90MdoIFTXZ+Dsss/mIaPtt3nXDPziYsqDjeB+UEi5rs5DQWWfxF07y8LJLoqdmERRXHe6A8VjbZmXFaIvEXTfZ6lwiRp8UuYWHF8fqxx+omO68XC/xeNGO2YYHwzMomLK44Xjt2ggVOdlIWy5tupmkrl5YH15RswgKL44VzgkVOZkZKVscbmvz1ro7wfEzCIsu9ajZhoYOeT8DSJse0gOqRpcE7Gx2w0MmumAlYbM+TubGywdIqsk0rg3sq7LHYwawWe6y33FPRWNjX0FJeYWFETcQJ1tvzUt2CJY9mInFdvKLlNGFZEKZhEpZc7nUyEcvueRYOq+oVLan2q4J7Dvxi2aNeI36w8mLnoLGoXtGyqndRRM3gFqz8wwt0CRY/qBnENfGKltaEJUEYnwpY/HStDr9Yf7nH57CiQdPymrgiuEd3C9b/5aW5BFsY1OCULEg0tMQ2LYiooamALZRrXfjFLso9toDlFEurzE6WA+/IbsEuel4Uk7CRLw/sxnI+TAut3uXANSx+sZHJLInDXooZFstqBE2LbdJqCA/qEuylWw8VsZ3PqDzWUiwtuJO1wDOmB9sZ1GJcgg2NakgGa/kyLbkKawEzIBWxoXItxYM9lWtEaSmSoWW/ZSnieC7Bnj7rwBHb6sbjsJIP08LzuxK4R/NgWyMvghFsbODBKFkIMbT4tyyE8FA4YGNFL4HF3iY9lhfr+DItvwrrAD8SnbC3dgE8dleukRgso1jaQrcOMOOwgt31s+OIDXYDicsQFW2iTssQhuGwwYGnphO22A/jxio+tI/8rgLsIDy2OOqJGcEmRx4DyyLIRVt5r0LiEXDEJouelsU+RzUEhzWMijZTpzWAG4CO2Gc7qRs7LXoACmvombaTwxqI6k4LdtpOyWOvRff3rsFNW/osAXxvRrDXfkIe2217M1hBMbSpdgmg+rLYbj8bfrHhtrOwAlHTtmpZgdCVxYb7uXDEltuuDBYwMm2sigsA05HFlkeeCEdsuu0pLYCnveW4AKEfi02PPA2O2Hbbj8X8H9pePz9cvVhse+RJcMTG227S/CxtsJ9f6uTBxkeeAkdsve3EYvqWtthOD7YLi62PPAGO2HzbR5qdaNpkO73Ug8XmRx4eR2y/7cFi8qJpm+3sYNuz2P7Iows4gLaDNDnRtNF2dqk5iwPoB+dxBG1zFnMXTVttZG6wjVkcQT80jzMourU0N9G02VrmltrSOIR+YA6nUHRbFlMXTdtt5gbbkpZTgHtYFudQuKk0NdG04XZuqSEWnEM7qAsnMXJDFjMXTVtup4arGY44iWZIWo4CQkNpapo23U4tNBNwFEUPiAWH0TdjMHNL225nBtOIx2FMPByOOI62lTAzSxvvZxbauHEc43A8DqRpw2DijrbeTwyqBYMD6Qdz40SKasJPzNPmh4n5BrScCNxDMTiTkRtQmHeg3ec4L3A1jjiTZiBKDgV8A8+8Im8fKZmXq/biUIoaBkccy7say7RE0QHU85JaN45lHIbHwdS1LKat6QjaacHWMTiYfhAWJ1O4UpqWpUP4TCtWYTkZsEPQcjQQ6hjM2tMxDLOCqRFwNEUPgCMO513lnVWkc8hpVr6Cw+GMA3hwPHUFhUkLHwTSswIX0zieT3cXzmficm5Who6inZUrxel8wHTGckDwlJNJOTqMflKplMcBFe7rxRG9SlnMOdBp5DQnXGUuHNG3qxtnVLjQOyfh40B6Um8RljMC25GSQ4K3jMKcLzqQ95zAJV4cUlH9BBzTq4ib00NHMszpLnDhmIZubpxT4RJpSonPhJIppTyWcwLbCctBgS9gMGVDh/KaEnTWi4Mq3MeLo2ry/JQcHct3Sj7H4Ki+XRic1cQ5LDOKdC5ZZiQZnM4KTAecDgtcjsWMzcGga0a4vuZwWBO353BcVcY7o4eOZpjR+yWF4+qaUziv4WsKE058NpRMCPyVcF6gWgsHBteX7hlddDjvGdkvXDiwobELJzZ9KU7opeMZJ/T+jdOJgWkrHRm4LyjMV9T5MBMC/8XhyKambpxZ4b/dE3J0QP2E7j8pOTO4G2I5NPB/i/NJdEJZ5hP/5HFohdtxOLbqTwrzvY4IufmA/6NwbF0zCuf2/dM9n0CHNM3H/iecG6hW/MGB+UOcjz4l13xeIjI4uL4RhZMb/qMwXU/HNEwHTBRODlQb/ujAEJGdjzonZj6WDI6ub0Lh7AYieqfj6KCG6bwUzg5UC/7wwBBhtsInRU1HDA6vb0Dh9Aa6puPoqPrZQE4PVD1/fGD8bITPiprO+fXVFM5vSLNxdFj9dwtULX+Apit8WtS3i6+ksLjhr0fB0XH1ByH8dXHAddyiBO8uoyhTG+veeACEz4vev/A6azRlKnM5HxbFVWFZj/hciqpq6+PeeTqwYefiYzVV1faJ6yFcw2It03NRm3z5tG/qxJhdS/5iapKvJ60FbI20EvFW1LR+0p55OrJxx9KjqWl9x5VIFQyWMT2KOtReNsycGbtd4jV1qB9ZBphy7yqEi3plG3cr0qFNexUtdWvDKrzFFNbQK+rahL2yp8bt1Guoa+3XAKqUWwKvqHvlN0ro1Kp98oq6V34JXKm0AF7REE3YJndsyG9S0DRE5RcgFbow/aBpmCZtkjo3ZouSoWGaMD1cZd7ZyUVDdbJDLx3ctD9y01CtzM4XYUz+YRqsChtkT869Pa+iwbKfHLjEPbdkaMC37I7QyVWbIxcN2MjcbIk4tZdpyCpuznN06N2aoGjI/E4tFlCYuaVhP3ujz47dGUfDvmcGlXdPLGka+CUbk+jwyrbIRQPXMrE7L84rMg1dx325T4/flahp6BznFbM0pu1p9By3RZ2ea1Mi0+j9tKBy7mk9NEG/KZGOr2yJpwn6ad05cVaWpuj35D4/fkc8TdHOKmYoTNrSJP2WqPNzbYinSdpJQX3tnpSlafoNiXSAZTs8TdNO6v5amJOlifr9cCfI74anido5hS8xpuxoqn479Am6NsPTVJ8pgb9yTcnTZONmJDrBvBeBJuundH3FzyjQbDnuhT9CFHYi8mwozMh/JU0o8nRIy1ZcZ+jeCNE0XU4TSl/QmK9omvC1FXyG9EYYmrCW+UD/7Z6QpSm7jQh0iNM2OJqyndD9t3c+niYd9sGdIr8LgSbt5/P+TaaTeFZKtsGcIrsJombFaTryF43papr2tQ10itUmXDRtMx3oP93TcTTxdxPCMaK0BS9N/JnO/ad3NolnpmQP3DnyOyA8M06z8X9KszE09XsPzDmyO3DT1M1s0h8UJvvS5OMW0DnWGxBp8u9koP5zzUbNzuxAPEgk62dmp2Zz/cdNxtH0wwb4kxSW76Xpu8m4/4S5CM9PbYA9SW751PxY5hL+I3NxtIB+/fRJulbP0wK6uQgRKUxVeAXU+tFJVqunVoBlKlBEZi6OltCvXjxKJGvnaQndXAyRmwuvgVk9f5bC2uk14Lk4oncqnhYxLJ47S8/SBVpEP5WXKE5Fr4JdPHOW7qWzq6CnEokw00jLKGunzpJZOaFljDMBqanYdXjWjs4yr9yzDnYuZiq8DnrpwmGildPrwHO5Z/LSQsaVe09TWLdIC/lOxc3ErsS9cu40vet2r4SdSpgJr4ReOXua3LqpleBNeWkp08KZ02SXLdFSvjPBRO+1eBZOnSazbM9a3Hui1uJaODrNetmutVAT0RNJtJa8bnKcaNloMdM8zET8YlBYtvBTIKyGn8c1Ebsaz8+BsGjPath5uIno1biW7fkpcK2G3hFaTbVs7jy9i6ZWg+bxzCMsB8mPAbdmQssZphHm4dcjrNr1QyCsh98Ptx7PqpkfAs96uP0w6+F+DFxr5tbDTCNtnPkxYNbM7NtE6RjxTyU6YLxq9EOAz1dcEPrZRQsadyP8YOJTFA5Y/ClASxa/58JPrnDA3Oeb++e//33wfr69uxE+38IBw08ufPSZHwr4fMP5Mj+7zL7JPPQxMj+V9DTCPMx63D+77vUw+3Gvx/NjwK3Zsx73fjzrEX52hfV4puHnEdZDVs39EJD1CNNw85DlYPwY8GsGXg7ZD6jVMD8HwqKZ1VCYpp2IXQ23bOGngFsNOw8zkWc1ws8BWbSwGs+OxNXAsqfzhFVfjTgPmgh4Lcy64TipZTNrwdgSuxZu4fg0mWVza2FnEifi1yIunDlN17LFtfAzCRORpVBY+Os0uWWDWgqZyTMRXCthV86dJr9udiUuzMTNxK9EWDl/msK6vSvhp2JmIguhsPLhNMm6QS2ETEXPBNc63EsnpwkLf6/DhanQVN51SEsHPktm5dI6vJOJM4FaBYO1N2fJrhzMKijMNBKFqbhV8It3nyW3dH4V3FReIjcVWQSFxX/OUlg6qDVgmYojuqYCuwbP6oWzJGv3rIHFVC8iPZe0BCyrh6PEWHvhJUhz0UQ0F9gVcFh+fZLM4sGtgMVciYjCXNICsKyfPUlu9YQXIM0l/OeZC+z8Hqz/c5Le1cMzP4u5Pv+xkxGencIGhpMkywc1O5bJ2P+oycDN7t0BHCSF9X9n5zBZ9R+SyUDNzWALzTmyGwAzN4XJCv3xnU2YGqc9uM/RswOJpxZm8/7JzQZ2Zg57+J6juANwM7sxW/cnMx3heWlsohwjxh7qeSmZjvkTTQdhWpx2AfoUXZsQeVoB06W/hungntWDbbxP0bMJeGZ1Y7rhb24+0HO6sI/vKYq7gGtOGvN1f9MTSjwjLRuBQ6SwjaJnxGlC+m8k80GYEEfspDlDdh8QeUIB8xX64jshPPN5sZXPGXo3Au98PCb8fsXOCHY2HnsZz5DsBPxsLGZsv6KmBDsXi91UJ+jCXtq5WExZfYXilETPxGI77xP0bAbsTDSmHOnLz5Qgeh4W+xlOUNoN2HlomZP7mp4TRM/CYkf5/Gjsp52FFsxZf43SnCB6DhZbas/PsyGwc9CCOSfKfCYFuWZgsafv+Uk7AjsDK5j0k6NnBdjxPdhVPj0ae/qMz2LaOofStPAMjj221Z6eZ1PgeXAe006U/cwLL49MRexrPD1pVxDVyDhg3k+enhiSHtcl2Fl1dgz2Vcy4dMLEdR6liUHuUT3YW3d2/MYAblQ3Zp6ooJsZ8PKIdMTmpqPDsjWIakQcMHVXQs0Nco3HYX/NybHYXLnHYwVzVyUozA0IaiwmYoP9yQm7A0Q9FhUw+UBF7ewgjsfBHnvM50Zhhx8eBztM35ZhmR2Q7CDYCTb5PjfPFkHcKKxg+sJlyM8PSHYEVrDN6diw7BGQ7AhswgJ6KqxXAEi2M3YJO21OjcU+p5s7swlLqEtRXAIgOe5HPYK9fk9N2ihAHtUPu4Q1DFTcLgIAf/VhA/ZbnRmD3X5tH5fHMtpyJMsApEe3dnnBjj9n5t0uQPzVmn4S1lGoolsIAMlf3ApbL9h04ROjsOfiLbfCl09YSldDrcV/g7u4lrqeiJ13J8Zv2n/jc6lafLmI5eQa5Jfjvyk4a7iEMrcLgt2XA6Ow+RKcNaoEG+tCwop6qqqW5K8phNf9NYSQcArteXG799cUwuv++oaQsLCqDoWFOZbpuLAcgoUOVNkcoCSTgT0tDt+tphaF82Pf2aTDwvLdEqi6OT6J7Gxgz4rDd6upR+H0WOLppKPCMp379ARq0ByeRERxNrhPyoPZvpQOj2mBwtmxRHRPR/icKEz3Jnt2AjVpjk4iIlLTgTsnfj6KKB0d0waFk2P/Q2k6wqdEY7qRiOzJCdSoOTiR/vhMB/6UhPncRETp4JhW6D035k96PtBn5MJ81X/MufHUrDo2gf6a5hPOSJpPpD+GY6PaoefU6L8988F1Qhzme/9Jn5qHGmY5M57+rieU+HwomZD6E/kzI9wS3UdG+AuU5gN3Pl7MN9JfWY7MTW2nE+Poq8+EoE/HhQnffyN3YhI1bg5Moi+rGYXDwWlG6guUDoxpjd7zYr5GcUK4z8aDCUf6qjkvLzWv5LS8lHnPSNTJ0Jix/RK9p0W4PboPi3COmhHCyYhT4q8pOSw39RjPyk3Z74xwnwuHGb+UeZ+VSF3qoxIo305J1KnQmPKVQ+Go6D7InRRVgGRGCIeC45SEsvVJcdQpp3PiqKSfEu4z8WDKTx65cxKpW3NMIhXVcxJ9IgzmrApQPCa6H3pOiS5DcUqIfB5Y5hSopD4ljnqOZ+SmwnZOeM5DwJxtEXJnJFLX+ogEKs0yJ1ynwWHOQoXDEdF9kTsgooqRn5Sos2Aw6aeUkgNyU+/hfFxUXk8KkU8Cy6xUKbLnI1D3LKfDU804KfiTEDDpQOX96RDuj67DEbmKnRXsOXgwa1uB0+EwNMLnaIimujIr6FNgMetENfXZeGiM8WRYquymJXwGtEzLVSF7MiINkuVceKqtpoXIJ4AF0+Y65M+F8CjIHIvI1chPC/4AcMS0PVXmeCwMjfM+FKKovpkXnv3zmLeqRUoOxU0j9WfCUIthXrC792DegeqbM+FpqBxPxE1NXhPDtXcWEzcN0H0iIo+FlJwHT42miYneOYuJR2rSnwdhGq2W0xCpVTsxiN43jZnbNiieBtE0XnsYIjdDMjEI75qWmSVqlNNhsDTi+yiIpnbdzBB5z7Rg5rYV0nIUbhqzPwiiqWGWmSHyjmnBzIXa1SfB06jfc2CpaTc1RN4vLZi6a4jsOfA0bI6nwFLbLFND5N1SgqkLt0T2FEQeF3E8A45ad3ND5L3SEXN31PZzBiLTyDmeAE/Ns8wNkXdKC+Yu3Bj5ExCZxq5l/zx16CaHyPukBZN31LzfP1E0ei2756lHlskh8i5pweSF2yO/e6Jp/Fr2zlOfbnYQvUdaMHtHPfq9E00z1LJznjplmR1E75AVzF64C/I7J5rmqGXfPHXrpge59sdi/jd16vdNNM1Sy6556pdleoDdnQfzT9St3zXRNE8te+apZ7sAePbGYwFtP+T3TDTNVMcd89R3WgB43heOWMBEPfsdi4rmynG/PHVuVwCRd0UnrKDpivx+RabZctytm7oPKwDRe3IJVjBQ5/duRab58rtXlvo3SwDYHXFYQ90b2b3yTFP2GyUXjfBdA/jt4Bdr6Kn/SzbK06zdNommIapFQFR7oRPWUNQASMs23TRvu0lR0SDdIkCunbixio6GqOIeiaWZa9mhl2mULIsAPNvAL1Yx8RiIww6JprmruD8PDdQuA6LeA5OwjBcN0+9PZJo9+92xNNS4DJB7BxzWMdBA7e54pgV0WyOaxmrWAQi8ejpiIfVISMvW3LSGRvYlMI3WLwTkWrsbK/nQWDnsixhaRRV35aHxsiwE8PK66YCVFB4M0bMrkWkhny2Ri0Z8LwXkXjWHtbxovJdsyUNrecl+REVjDksBBLViJmItA41Yxf2Qi1ZThd1wNGq9GIDj1WKP1VRDInK7EZgW1G1FMjRutxpI11rdgtV0NGqTtsLRmuq0Dy/TwDmtBhDUOpmI5Yw0bn73IWpaVX42QS4au1kP4OE1Ui8W1AyM6JJNeJgW1qQdeJlG7xcE4nh92GFFHxo7vzuQDK0tP8snF42fZUGAZBeHnWBFEw+O6JLle5iW18S180wzvJYESHZlbsGaGho/v2sXNS2xk3VLhib5rgmQ7KrYhEV9aIomrZs4WmX1Lpo4mibLogDJLgi7hFVNPAcit2qvooU2acVeRRO9lgVIlteCnWBdDU1ThRVLhhbbyWolQ3N91gUQp9ZBeazsQzM1abXE0XqzXyq5abacFgaAN2twBSxt5KkQ3bJUnmnJVVgnxzRfszZAtDw7vhMWV9Ns2a1TULTsJqyRVzRltziAeD0z47G8jias/BoFQ0tv0vp4RbOOqwMg3jwn5RLWN9CclV+fYGj5bVobr2jeStYHwGt5NmwjVljUpIiUX5tkaQttXBevaOp2iQC8lufB9sUiXzRx5dclGNpGE9bEK5q9XyQAr+UZqDtgmR+au/JrEgxtpfHLIU7R/DktE4Do9NjME7HQkSdHpJwsh9e0neqRlUiWaQn1SgEQb9WY9P0Kllo0LSDfaSXkUbSlbNMqvBct471W/03e6rHo+xUst6VFvN5ViJZpX41fgOQUreS7XP+V4AyPQF0uYMk9raN6ZH7iDW0u33Fu70WLyXHF/piCu3Q/xj5BsOqR1vJ65xYt0w7rJ80q3kzrqWXV/pyCu41uyRj3hISlF7UYROqOs0qPon2+vMwnPYrW1K7d30N4nLuM0WWMMZdzPgRs4UUrqp80H/GGdvvyMpP0aFrXZwuyw1+xoY5WVT9pJuIv2nPzpDnEW9Pahg3Z2JdWVt9xDunRtPPqfgcn3jItL6fvk8hLQ0RsXxnceys6gOaJowq3pjXW8l0imlZYuzCq6AydQzYuDEZeZ2ih7XeJoWU27pXBBGfoQOrbxzGExypabfc9ctNaa/uEMUR/azqZxj5B+knBXZrW3H+HeFpxbV1I/Uh4rKFDaqx7g7SUgneXoZXn+P0RaeHN5XxILUnwzho6scoY554QQiqTQgjOOWOYdpDluyPyyv2VjXHOhRBSmRRCeJwzRtE51uavinZUy/eGaNpPZf6q6Yem+dYQTZ+I9jvD0mei+76w9Knovys8fS6+3xOePhg5fke89NHI8fsh8mcDcfxuiEyfjlq+FyLT56OW7wRR9Amp5ftANH1GavkuEE2fklq+B0TT56SW7wDR9Emp5fyJps9KLadPNH1aajl7ounzUsvJE02fmFrOnWj6zNRy6pKmT00tZy4yfW5yPHGR6ZOT43mLTJ+dHE+bp89Pf9Y8fYL6k+boM9SeM0ufovaQiaHPUS0nTDR9kup4viLTZymH0+WZPk792XroE9UeLLH0mWrkVImmT1UVz1Rk+lxlf6I8fbbex0ksfboaOUtJ0+crx5P0Mn3EPufopk/ZS86QGPqcVeEEvUwfte783PRpa9LZiZo+b/k9OQ/TR66VUyMXfeqqcGZepg/e+8DITZ+9Op6WoOjj1x0VuekTWIdzEhR9CN9yRsTS57AKJ+Rl+ii+5HQkQ5/G/JwNx/SBrOO5CIo+lG85E+miz2V+ToRj+mjW4TS8ij6er3QSoqGPaCenIFn6lGZ3BMQxfVArv3+e6cNahb3zij6wTdi3V9GHtgl7Fgx9cJuwX8HQh7cJe+UNfYCbsE9e0Ye48lskXtEHuXpkd8QxfZizSzuTLNMnug27Egx9rGu/IeIVfbTznfYiWqbPd/Nug3hNH/J8px2IlumTXntZO3k0fd7bd938RR/6fMcVey3TJ7+641rFm+nzX91xlcKt6LdAdYf1eS3T74JsvaxL8hf9TmieuCLBafrNkK1PK5H8xfQLor5fWYHkraJfFPXt08yit4p+YVTXE2YU3MX0m6O+fZhHeKym3yG1dUHGloK7NP02yeZ+QhpPDM4a+tVSG+dCGEEI7jaaftE05nZPCKm1GIJz1mj61ZONMdY553wo7J1z7jLG0D////P/P///8/8////z/z////P/P///8/8////z/z////P/P///8/8////z/z////P/P///8/8////z/0emfcOfbx6R8eHPXv8a4fFF0ePx+Kr9JcLiy4lHc+HLwt9EyvxZnTv1JgCI4bG8Y+/XEEYTv4brm0jwV/H60Dl8UTzvV8rAPRhkum8ifDnw6QPk2i7kivr5EL8E0SfOfg3Qm4fw88F/DeHEmZx393D9eHAZ0OcP2yf8w8L8/MH76wrMryuJf1vB8+sKzK8r6dcVuGOmrPvjxZ8e0GeMH/xd7KdHPGMeXzYfHrhPmMbX308PUQfMZcinB8IB8xn4+IA9X+HTRPi3Fby/ruD6dUX4txU8v67A/LqS+LcVuF9XoH85CSEv/naiJAvulxO680T9ckIxC+G3E52H+5cTcnnCv5xQysL724nJw/XLCT15wr+ccMqC/+WETB7MLyf05iX+5YQlC89KGOOc8yGE8DrnLsNHRJvbORf++zjnjOFVMeZ27gn/dc7dRm+TMta5J4QQvHPW8HGhKw96CdTlgqCghOfic6EuFxKKhsfqpeDLhYSS6XWG90bZJyBfgtNnhUJenN/1JFSNj+6I7xCCHciVgFcvAV8+oa68Vq3B9STUjc81Bm3+q8bB5r+6L/0klBd/nRQlWXBzu7ygwXSrTnTCfyOPwuOPtjlTWvXD9kWb8Vazsy+aFH/1xh5/TW4MLuGvr+pFPQm1k+NjQnce1LyUS2jWqx6s4M+Rx3Djr7618unuw3hBw+81Me0F7cqjuor4qh+Bx1dFdWFeNCmOTwmFvDAr5dG2V83d+KIfwoUvBh4D4DuwEa2nm+dkA1oPpp8LX7f9GXzdd2ACmhV3SnQe7ikpj/Ydt+XxZTcALV9B5EHAtGYTehTH87EJPQbTi894+/MZsTn1oulkzgi5PFHz4QddJtOSQ6btjgVfD6PwbV0JvYqdjEnoNZg+QkboL2SgNSdo3Z0RilkI07kEvT7tMHJFd8YRuXoQoSUd0HM0E1EBPb+qPxlNaEtHdBj5iOg8XHPhFx1HbsVkQbgvj2w3HYfeH56FQ+dyd4eZWUGXok8IPXnCMzGCrpPuBZF7cpidjug/6SnoiP6DWjaPXuU6IZyy8E7EoXfRbXAB+I4sCpq53BjjPYEbQxS7ZhzQsT0gZPJgZsEe/Ytugp4CcN1oKZBoEG8b7DFKz4PjF6P0vGAc0bU9IOTzEs+BIyqm111G0X+VsS6Ug+gmOBaA7UQJCppR2CZUxDgjD01HjDPycnFE36IPCEsWnilwRGnxF1P+5aUQRLVASgpAd8ERBS0NwlOLWlA3encZRX/UxrogVfCMTAuqSnhuY+iPbMz9hDoQvVgcUTG9zhim/2pzP6EMRJ0PuvJgJsARhf1FxW0sg8gtkC4hqocXBT0NQV5LLWpBxegMlVT3WwEDs6j53ppK6vutANFLxRHFw60o//JSAJHPB715cXwcUVQcU1WTisA3QbYAIrf3oOBLjVHXWlA83orKsw3F9LAsygfLVJ5tKAaxK+VRWJyi0jbkwR8QJVlwo+OIkuKYqt9SArYJegrgbc6iYOSJaEFpr6m28lKGRmVRWh5FtdUjhQC7TjfKys1U04QsXKROB9150IN7UfJV1KKOJUQ1QW8BPI1pFBRF89CCwl5Ri+ykQBiVRWFxTC2yk0KiV8mgrGOqfUmOMB0PCnlxbA8KykWNsi+Atw2OBWCb0lJC0zyUoOyrqFV+8vSgNAo/TK3yUwai14ilSNTUIL8Z8AdESRbukV0oGBW1+xTA1QSxFIBuiCMKWpoHRxRNhlpWIcPRmLSUCZpa1rEIhJfoRcmHGrUZMOeDXJ6ocSkp4JlavgukNkhLAdHtBBR8aCIvij5MjV/ylURj4oiiN7XuiiDyAl0oaalZLV8L4XxQzEIYV0C+p8Z9Hu42yBZA5FY8CnqayI2SclH7/H7BDOpFyaipfS0l4NeHUwHR1LCWL0EOiM6DHdWNfEvNv3nCbZArgNCIRcHIE9EoGRV1ecmfHhqTQ8mXqUeOJWCXxyFfNDWt5UvZR4JcnvCYlOR5ap9TFmwj5AvAN2FQUJjmwalEZOqU/X8eGpNGSU+9+hKiFkchXzQ1ruWwcMrCO6YX2Z561HmpFY4FYBvQUkA0TeRBQU8dszGKBhVLWOrXF0BYHF/AUvP2sJDJwzUig+xIfbosXI0QpwIw1TihoKWJaBT0NPpOHApa6tkXwL00CvmOOnwOCz15iQcUs0R1winrbYW0FBBdK6Kgo5nEApGWRKGgpb59AeGV8XmBuoyHhSULz3gssi/q1WZBtUJXAUSu41HQ00ws8iOvSSjgqfeYB78wjGzhPpScFbryYIaTsl7qN2XdzdBdALHKjYKRZsIpTxQtyYX8l7rnlAezLneepU7dYaE3L/FgLuQKd2SzYjvkC8BXuFAw8VQc8i9ak5QXuT/SBcK6pKxA3abDwpIFN5iQdVPPkgPVDsUCuItpKSCaZsKS99CaWORrGuGdB7MqBtm6n+uwkM2DHopGbqKunyzbEKcCuApxQsGLpnIjO/GipLybxhjywqr4LE8dh8NCIS8OxWfZvlTW2xBpKSC6TETBm+aS8gytyYXsQINUkgW9KJKlejKnRUkW3EgkJ1HnMUdaIlMAiUt4FPQ0lwvZnhYl5OlRkMvza3Ih11PX6bDQnSdqHBdy796eHOiWyBZA5DyHgpEmE/LUoihkPzRMTlngJXmydF/2tFDMQhiHzxHuzWTdTZEvAJ9lUTDyZBSyHS3KkyU8DrJ595KknEh9s5wWnYd7GJLjqfss3xaFAnAZWgqIpsncebwqkuVopCkrrohCru2M/Gkhlyc8iAu5V38hJzTGsQDsl1hQ0NBsYpanRbmQKzwUmwW9IDaLe7uOC6UsvIN4coT6dzlojLQUEP0FjihoaTYK2WpVfNZDQ2XJcgvy5LzUvRwXk4drDDHHD+DKUo2RLgDhv3kU9DSdOyvQqqQsNRZ6suKChBzbnz8u9OQJj4CRew3AZJnWyBZA5D85FAw0n5BlV0Uj96XB6iyo9UCu6u86L5yy4EdwZfEAKOtujp4CeP9gUTDyhJDNq3Jn2dFQyrLLoXMS9c/nha48mAG4nEgDcu3RWwAPEWkUFE3zMVkvrcqbxcN5svxyXDl+ABTPC715ifsLOX4IIcd3wLEALCkpoWlCLuteFsl5abg6Ky6Hy7EjeA4MSxae/iTnHlHogJQUgIkoaGlGIUutikLuPR6SHCzHk6NHYA8MXXnQvTFyzSKQLlH0oSlJTqJVubL0gN4ssxohh0aoTwyFvNibyRpy7IJsEy9NiZH7LovLERqwy7rXJg6BjoySLLjO7AzQBz0NRJ6TyXLL8uaEEZkstxrIfMeQTgzdeVB9uXUhX00UzenOMssSctyIOCusjRtDODIU8kJffmE4VhJNk3JZalmQa0dEG/acGZ2Hu6uwMMRSx9Ks3ixaJTOkkCNrY8bgzgy5PFGbQlpqOJpWyEnLxDPAYqhvBIpZeHtKM5B+yFbwNK+YE5bFZNGQ/dqYIZlTY/JwdYQZvh2RKxZ5YjgJbqn46NGTJ7w0pifyhYTpe8IsDZ09Tll4V8ZS1xyLiKaFcKuUNkx/K5DJg1mWYKhzVeShAyMbRt8L5PMSD+I1o2XqPhYRfWDw44clC88gAq2mR9nE3xS8NHz66MqD2ZIbpeNCvFv3ZNHSmONHb17ckQvl/TqEZeEsPaTws0JJFlwfMSethZYKuI8HZZkzdB0duvOguwg5WApOqGqnFXPSMt1DkpywGpJxj8GdHQp5YQi8EhF1Rc8q5GBdQs4zJCxOyHDfASoPdw8uyyyER23hSb1ZepXCiEzWszZ+DM/hIZcnagD3OjjUjzwnl2WWxeVgRDbLrYbPCGMIp4diFkIHJutZBosW/ZzuLLcsNksP6Mkyq+EyZAzx+Og82PZUVlwFLU3ATclkvctisu4BxSxeDZsBHgKOD7k84eYoC4vAgoImFoCdEWfJslDWOx5GbqLVMDlmBPoAccrC217IMkvAEQUtKSkAPSFKOdDLEnLAw7my3nlIK5zjRnAdIDJ5uJp7sp4l8Cj4EJEuIWpCb9a9LE/WNRyfdc8DrZBkvCNwJ4ievMStXVlpBR4UfOm/tgAiz8dlxWW5st7hSJZuh6cRMmQE4QixZOFpjbOg5mdRMPIf6CmAtw/flcmCWhXKAg/mQm6idkxvph2XAT0AHCG68mAao5j1TE+joCj661sATxcux7RFknUvy5t1D+bN8g3Z3q52rpy7P3OI6M1LrT1ZaXZKCoimv3MsADudNysti81KY1HIvhp6enPtqJzYnztFLFlwjeksXHPjiIKWvspSAKa/qzGbBbMqnIVrKC5LqKbPib2FdihlQHUXTxHdedBtUcoKc3tR0NHXtRQQ3Z1rjPPCqtCbFUbCkuWruBxwZ5LjavicuzeFY0QhLzb2ZEHNzKOgp1xbAJGbu3J8Y/RmQa2KzYIZiEO2burqS6OhKyf2dh8kJVlwbak8PzGLgpGzyBVAaM7kxNZsXlgVkqw4DpasRFVNlu/rybI1OAe6s3SQ6M4T1RTFLOhpGRQUpoK+AHxrKgetsWTBrIrLwj0Mh2xbR2dJXynL1KA3x/dlcJIoZiG0ZfPCrLQUEE0lORaAbYyyTGPk8+KqqDzhQShkC9ehLNieDLKpqs2B6sqfJZ2XXYskC9ecOKKgpbIsBWAaizlPayoP96KQz8I7iJDnqHLMij35rFSHs1xPCmeJXGcuT3hKAQVvKq2lgOi23pzUGoU8UYui8nAN4Ua2cC2fBdOPQravQ2+OcEf+NFHqiyUL74w8CnoqfxVA4qbuHOjWTB7iopDPEzUALXmOatu80I/PuytdOfD9KBwn0xe5PNj5WBSMVPMugNiUyfKtUcjDsygsWYj9cUS2cDWVh6sXhXxViVIOdDfhPNHTF0ue6NlcKJi4CvkC8C1RlnBrpgDsmpDLg+/OI99S/ZiXuJOQl6i2ywq9XDhQnLoimwfhuWgpIJoqxwK4W3pz4Fqjt4Do6dxtUMqD68whP1CDdx6ePm7kP9VYcnD3wXKi6OqLQh4iz4QTCl5Um1MBXA3ZLFGtqQIQPRvXiCkA25VFQd2CKoCrByUFdDVyWdBdvDhS9PalCyDyRCIKWqqvpYDodlQW3tbIFYDovswLBF3H5ryN0FMAtiOLgo6ajAVEtccR+ZHqs2RF7uDGoWLpilwBRO6IrXOqIY+Cnlq8CiBxM/RmwbZGsQBE9/Tgv6KrmJzUCqcCsN1YFIzUpi2AyM15FLQNkMvC296FU0VXXxQLIKpubgEA28yNgoHatAUQuRmbJ7o1XQJiuuEXf47cEFQjpEvg6cShoOhGKBVA5MY8Cgq3wJIF35qWL6WzRKEvLQUgug/2+LNuxKJg5EbIF4BvhiQLohsjVwK4O9ERf/c1VNbdCt0l8HIH7FHSUquuBCI35VHSUZM2D74tLfiq+MOkpCuyJYC7B5Pw19CGlgKiqdlQAK4ZlwfRjVEogpd7uPHlqwJlpWbIl0DSzemIkg+1m0og6nb4RUnhNijkwbdkBF924TDR3Rc9RRBUa/zgq7YFFhQ01C7HArCtsOQBd2MsRZBMczrg66lGzIFthmMJwDV2C0oGatgWgVyt6IiiNzWqC+DlZm58PRFOE4W+6C0Cuduygi8L1+OIgpZa1lJAdCPkSiCopkhLEeBVTfGDbF3BZwm3QpyKIOqGdEDRyC1RKAK83IRD2UjN3gUQdRv8ItMcKN0ZxyJAMu3YhFxXz6Ogp7ZNAQg3QqkE4FVLZAtBHDfDTpBvKtgsRG6FtBQBvGqEPcpGpqaVlIHc9UxCYd0OhQKQu4UrIfMhc57I9UUcywDhasMm5IdqDgVfat0WQORGTBngtdwO2UKAOG5COUHJGioPUbdCWsoAXjWgnKCsaGr8LgQky1WugNKOGuZUAIimlgrITXykKPZFHAsB6eZa+hEUrWVRMHJz9BSAb4SeQgDiYw23QbYUAK+rXR6FuQKlPMDrRkhLIcCbSsajtGhq/i0FyKNLqTuheKCmtZQAgqmhPbJF05kynRHHUgBeq8ppF1E4VNIoKIo6fAvgaYRjsb+G91bVyJYD0qMrXF5Q2lFNVwJIr7sN1yMtpYD06GL6SSgemdrnWAxA8lbl8PVEVIzcFtkyQLBchm1EQUuHip7OiGM5APGxOovN/QrKuzpKSmjqkWMB2DZIS6X/2mpkKwCQ9zZ56nIBFSNVVWX+KLYeqVgMQPJWZ2nrEypGph6VVPhjeN1ffRDUFU2t20IA3lvnGBdQ1NGx4tQZsa/xxxge99c3COpGrsIRBS31qaQAdBukG4CpRlZq/DGF1/31CQGVA9chXw646hGHCn+M4XF/fkJEZc/Up5ZKDYum9m2x/4bX/fkJCaU9nSsyvRG5Wi1HpqoOBR/qVZdIjZBtwNcjLbWafqi2rhEbIHoqtXxTt1rGIJp6tDVa9HSy6O2OjAziYaorBV7q1xaAbYSsVAsNEMdRyEX1fQU0QZcMQQx1rOMIkqY+bU+ezhZLd8TvCOSiyoz8yB3RU8C3QloGQOTG8DI1yNIZqTCAl6lrDv1Fpl61dHPT4aKrP6JbunuYmhNFXb95bzOk4gjIpP7EUpumN6JbOpOLun96e6hjFfuQi44XvQMg9n0FTQ2mHNHUN8esux0iNwJi15tnatV2R+y7epgGaFJPYqhv10NUdApkZEoGQGRCP+miJm2Opd6VZERuiXQYAJEKPQVDDdvuiEzoJmgaIz/9PEy969icoy/nxN0KGW4sdOfcfRCZ0Eey1Kr/mqP+tXwpaWrchAEQmdhLNNS27Y/oSl0EQ+NUoY+gaYS3NBUUZWa8u+Uy9GAoZKheiExoL1zUsPuKpxHar0Sm9s1byrdEZEMPwVDzOvVHZEJzr6GxmtBeMDRIdtJMMJTtv2Z2i+VLnkbL8UueelaPtCSPorat/CXyEMj9zVOf6o5FrraIjG/NG+qRnRSIrRFpLw3Jo2i8yktTXtNA+U5NBEMFOX7F03br8DdxNF52X3io98tLG+Ival/LHyLTIJ8/3dQv2yfmeGpf3bGdeDP1yk6ybHtEbN82xF80aLZvK9EyjdZ4qSSPosLWhz96QzuuzB81DVqbP9IQryfWio+hPtkLxDEN07wSvaLetXHOhz86TX1qF1uIt6K+L5++5KlTvnyqlJ6Lhs72lVryWqYxX08sFh9D38B8uZDKpOAupvPI9ok14nMxjZCNc28IITyGelb2CWUkPJeiGWr7hFLBW01DZ+PekBFeZ5i+k41xzoW/Ps4ZQ0fT3C6EnBjcbWhF2VjnfPizd+4yTHNlczn3hL8+zl1G0TSV+bOiT0E2f2X65/9//v/n/3/+/+f/f/7/5/9//v/n/3/+/+f/f/7/5/9//v/nf1KXe0IIwTnDv6DoJ+HL8ebfTXRAQc+/mDwoK/bXEo/i9pcSh4rmVxKFmulXEl8F9nsIgw0/fqTO+wuJRuVfSO5a+vcRV8v8PuJr3b+PhFru33tcLfvrivmpZQqqb6OrFv/Q0ijovo24UqIfWv47i2Kd56eWfGvZOuqH1oVvLYo1Hvqh9X5zaSkX+YcW45uLtJSKTD+07m8vUqHMw/RTK35/EV0hzyv6Pt4uje8wIu3CF+S9mb6Tt+v5JvuvNn9U9N28Xekb7dt6ty78tuI/3QztJuO3FfvrSvxtReG3lefXlfTbisGvF9rczrk3hMc5Z43qzk/HmNs594QQnHPuNmZC+nLOheCdc7cxw1Dmds6F8DrnrOGp6Ms5F4J3zt3GzMMY65xzTwjBO+fcbYwakzG3c+4JITjn3G3M94q+fUTB8FjVEctElH2CoKSEx+pp6Ccg+x3A9QRkp/dWU9AuIDuOz9w+oHQKz214GMo+QVBSwmPVsXMo+xS6vKBifHQnJqFX1xpfPqGueMtdoGwspp6EkqGEQ+FUxnhB6eRUeyibiimXUDKUcKhq2rqeiAaTt6o7tl5QN3nL3wiphPKC6tFye/yi38bsizZfOwoUUh6FW4IuYBPqvmYI4DLKo/DILi9oN/mLO7Iv2nzttwFUlgloUxw3dgumoJygXXnUGEwJ5VH8acll2YT6wYzgKsEexd9RKSdo/rXchXoE7YpT3wR3hgpoV2xLJqLrdpRH616NwBVwgvKupZihA9r03N9T4BaUd2NSHp2+V3PKo3WvvgXerzm0HXQr7NF5K+zR48P9hSwVUbMp8JduQatydRezVEDNIbFHx/KolpRHj46/AeQrOqJ1sW3cgincgj7l6g45VlD1asp+gT1afnoDZ1yCydyCzoNpxgn6TNf5g/nbJejQN6AD+m9CR/T7cm/maw8qm6bev3FE24E7M19zqGyGwwEDTKoJHdHvy8fv+YtFn5Er8YMRtmAFPYvp7P6Sx0jkLxzReuS+3Jc8JqMFQ+QWbnSd9OmLf7LoNXIVK5iDR++2r/crHtVVUzB/4Ij2I3cVvuIxmUswRE/12aN3e/ig/mPRb+QKHoOsxhH9+67kCx71qa3nPxzRY+Se8AWP+jQWg0GaehzR/334LBFp9OwrhDlwxAh9T9B/8RhN/I9Hn5F7Mn/xmIyWQUSqzhEj9GfvJWLpCnZuHDFG35P9k0ODqTEoIode357uP92YDCcM0lZTgjE+R0+IXvQtamYcMUrXkf+DRYuhtZsM+nUdvX+40GIcyotBCtXmiFHakwf/oPcws4hx2n7Sf7SMKJjUEUw/8h8lTYSRGIzyqcUR4zQnb4RmXh4DFd0NFBFFNOlb6zxxN9BEFDGbNAxVy2Ogor51wrQshhq5G0vk0KabCp5+LJFDm89ALEb5UuUbQ43fOjCT0jIWPN08pLEi0N14UmjUDSQM46qkMVj3reMnFTFa00s0oZV7MqGbZMJ0FEaZqC6n0UB954Cn5NCohBBiI7GXhs1kYHpp2I7jHsZd6UGjKYQQGwnfOnZGCg2Kt5r+zMaFerCbEYZnxhGaCH+NVbiORoPiraY/s3GxHq4D4V3bambvjN56wVKuclIrjU7PBmaZUFv8peirbG4fy3iqG+qFi3KVk1rpQLRuBpKCc9YYc7s3NQIu8oQvxzopVLWFDGqni0ryUwl2cNRbCs5dxhjngjTyjk4NQ9dyTCX58pKn61yonQyV5KcS7DfBaxV9WT/SxFUk09Rx1GGo5ZkKG6mTFibeir6sH2kBanA0jKuSofKXl69FqptqeabCl9SJ3wJeUT67Ftx0DCrfVF7HKrhWJRjKZ9eCWyRXx1Hdy8sXbB2LypbKa6kCc/6iorJG6oXphEqWaiqp8g4tdHRTWZ3qpbGlSXAlIrbxT0J1YyVLNbVU8cfPU3Et1WQ2CnUfqqurQI0kvu42xig2xlzuif2IptIcq0EPJb3uNsYoNsZc7glhHL5KoBbVIwBcHYO6juqaKuDDd1NFXQ08GV8nUu27yj2K+FxMbbYgmspzrPYMIz0XU5t9hO6I2EaoOr5OoNquij17nqq6amYyUkdXo1gjDEEeRe22cFFNJbXiGOTR1O54pBEiUlSVUVdVo1TjPXqRKqda11wsqnqqb2qA+xPL1HIDD9W9akENQBxTy+OBaaayreOovq0hR0/XsrXcXN46qgGKNa7uHFPb9YQrUahl+3uY2u7jqRPG8NZRDVCqAHPwPFVPKyFVXmrR1ng6i5par2eptqrle0uaWu/D1YEfAaOqpxbvGu7gqXpPJT+VC1VtE1wj9uWZRiNcjXyl1NnLtADwA7B1riZUjXDuXqqvK4WpPHW4CQoV0JWnDqs9VN9UAnflqcM+rlqIujtfRajNWEHO3dUAyTrEKoHadDVMR54GpBugVMn05GkWphrwcGepytvIUwHq1Am1+C4Do6prxNSw/QQakFCLTyXXUaRpUAMQxz0pVL0buWqYU+ebcMtg6lyNcA3XjfCIfBO6ku9H1ERSA4A8qh9bxzSia7hTdzVxLYOroxqhGm83F43INkFSJ/Rz00R8EwC86cXV4UaoxnPquAmzDG8dajVUCL0EGpJu462DbgLN5GoFCLaPUIdalQrh0EVqcxlilTSA1IsZE7XpxmSmwu0A4lQHUiU0E74dnrVC1WhajRXQSaAhxUZMJdNJpKmQbwjAe7XGqBpNq7FCOnR2qXSdIXZyjSk0ooZkJ2PaApLjpkydIR463YgsglkSoTG5RqjS3QlPhkJjALxp6PqeokbDItzD4y7eucU6ro+XZqPbA4Jtxn1LpbVywzNd3IO6WgkDctMh1wGQ7DfEbdrmjsL50YMyrfg6vg8zH4o9AOK4hfeoGRpoJb9WYUlobq5O6IMnpKQLQO4GwreUOz5pO2hCpKUPINmPjDAqNa0wJdLSCRDMN5z9rqBW700gLb0AD1fBt5Q5Pn5yZhdIx26QzI8mrIg7RMRvN4D7nYPokm7gf+kg9t0g8AcQt2K3gsiEXhA+gEwrbjOIbOoE/qdS+P4isqkP3L93ENnUBXQR+SWDyMYeYpHwwymMUC/E3Uqo49eNyLztwTYXRvgDwtdRNO4puSG4lSNSj7SWmqMDe2JcHbMXTyuyMURkY1uwBZ46+sMktIK69/IRGd9UKODqmB8xpo7bi9iIqWQ2gEg90g5Unq1jf/48e4FG7AYRsUvN2DxTx/2IoTphM0wbTyXaBCKyqRGfp+qEnzGpCjbDthHryEYQ2dREzKM68jPmrWP2wjfBqBu2guiWBlAgVIH+EePqPHuRmrgq+c0gfhrQeU+d+0eMqZP2AqoFX+neDSKTqpm8q078EcN1cO3F3YJUMvtBHGtdeaoO9E8YinXCXqQGLCrThhCFSi6PUh3/I8bVgdkKmHqhUtwTltaeOlA/YXSlsBehmkHlZ0/ItXZVen9kvK1RqoN7K2BqhVrXpqjWSOrg+qGg66TmnkqitiJxnRu1eVMoteYrCf9MoDpQrelKiNyJVksCX0VJrUBLZK4OQhVbwlRC7MWo7zzfGsVKiF1cAWZNcFfgiNr3Gjmkm1uLVUwJSpXgu7AB5jsPujVbC4Fb4zsBywJbjCOqq1UC4E1TjObuWvDN8Z2Ab69QKXJjlGohqqaMxx+XBZ7LqIjqgRYKSI9qx9ahoiy1ELmpy+OPJyKG5p91Q1Sl1P2GInc1yNWMfhL+ui5IVwkrqG/XCkC8dRssVVIZctUgphn9JPz1RHQYVsbVgtwF+HoSgDKUqgFBtWCehK8uDJAsZ9iEBoWWC0B6rnocUfUtxFINeFUL15Pw1e+uuxogj/mCMs4n/LmQbQDwpo6+X0Hm0gCIz22MIW2Me9GmW7L/hltX0RF170LkGgC8qaPvV5D53WUa+G8K/0VmIQotAOkxZYx1QVBwdTpUy/bf4C5VRnvU1qUotQCkx5Qx1gWU/O6iRsqW0m38N77OmT9b51wIguK74Wnp/ivhccbw35S5fUL1RMVNG/+N3t3mz9Y5F4Kg+LdXHA25ZlreDbV+fT7l6Gmm5W8vNxyKh+OhPVMVOP240OPRcjSE9yxQTf3jgtJwyB6Nm/bMVCH748KNh9zBCLRngSr7nxZqQOSPhahNU7XI/7AgPyDyp+KmPbupfvxhoUZEfmMkdORpzwI1yPFnBbkRkd+XQL6byHsWuQUi/7OC04jo3hYQ+U4i05aJokafHxWkh0SX7Ioiil2Ipi0TTc1a+UlBdkikwqYYIvYdJE1bFpka1vEnBT1DIrplS24iIt9cZNoyz9S2+0lBfkyk3iHo1XD/IdeYZ9oxuah5FYagv8nIjonIhO68otV4/0CXNCQ3tbsVnqlHE3oTr+i7jEwaE5EJPSXHVHtG4U+kQjNB0ZLxnfoKhno1oad0M+36lhE/bSXbDJHy0sl7UYMzI7KpiXRR0ytBRNpLN15Tz9pLH+INbfyeESnfjHhDbbN923stU5MzwheIXaqWLDW+GER0PamDeDP1zvZtTl7LtPW7RsR3bCA+hnpk66Wd+FzU7OSIyIYq70XNrwcR6fuVlsKtaIxsX2knPoa23wxWV1CmKreiTU3dHBGp+5VyEtzF1LG+fawWX2eYWjZV1RSI1B3LyGuZOjRVdUfKVOVq/9X2CVIvvc7QWPXtY7X4OkM/AbV1b5AvhfC62zAN0VzuCUFyQgiPu42mVWyLiNg4H9IXYnhuTRvK5nIuhJCyYgjOXYZGbS7nQ5CcEMLjbqPoY7C5X0D/+e+f//7575///vnvn//++e+f//7575///vnvn/9+17Gh6s8G;clipPath=inset(0% 0% 18.87% 0%);" vertex="1" parent="1">
                    <mxGeometry x="126.18" y="344" width="64.13" height="44.57035" as="geometry"/>
                </mxCell>
            </root>
        </mxGraphModel>
    </diagram>
</mxfile>